<?xml version="1.0" encoding="UTF-8" standalone="no"?>
<!-- Created with Inkscape (http://www.inkscape.org/) -->

<svg
   xmlns:dc="http://purl.org/dc/elements/1.1/"
   xmlns:cc="http://creativecommons.org/ns#"
   xmlns:rdf="http://www.w3.org/1999/02/22-rdf-syntax-ns#"
   xmlns:svg="http://www.w3.org/2000/svg"
   xmlns="http://www.w3.org/2000/svg"
   xmlns:xlink="http://www.w3.org/1999/xlink"
   xmlns:sodipodi="http://sodipodi.sourceforge.net/DTD/sodipodi-0.dtd"
   xmlns:inkscape="http://www.inkscape.org/namespaces/inkscape"
   width="64"
   height="64"
   id="svg2"
   version="1.1"
   inkscape:version="0.48.4 r9939"
   sodipodi:docname="Sys_icon_Opera.svg"
   inkscape:export-filename="C:\Documents and Settings\MARTINELLI.NEE\Documenti\Michele\ICON_32x32.png"
   inkscape:export-xdpi="90"
   inkscape:export-ydpi="90">
  <defs
     id="defs4">
    <linearGradient
       id="linearGradient4386">
      <stop
         id="stop4388"
         offset="0"
         style="stop-color:#888888;stop-opacity:1;" />
      <stop
         id="stop4390"
         offset="1"
         style="stop-color:#aaaaaa;stop-opacity:1;" />
    </linearGradient>
    <linearGradient
       id="linearGradient4378">
      <stop
         style="stop-color:#888888;stop-opacity:1;"
         offset="0"
         id="stop4380" />
      <stop
         style="stop-color:#888888;stop-opacity:0;"
         offset="1"
         id="stop4382" />
    </linearGradient>
    <filter
       inkscape:collect="always"
       id="filter3797"
       color-interpolation-filters="sRGB">
      <feGaussianBlur
         inkscape:collect="always"
         stdDeviation="0.42"
         id="feGaussianBlur3799" />
    </filter>
    <linearGradient
       inkscape:collect="always"
       xlink:href="#linearGradient4386"
       id="linearGradient4384"
       x1="6"
       y1="-26"
       x2="60"
       y2="26"
       gradientUnits="userSpaceOnUse" />
  </defs>
  <sodipodi:namedview
     id="base"
     pagecolor="#ffffff"
     bordercolor="#666666"
     borderopacity="1.0"
     inkscape:pageopacity="0.0"
     inkscape:pageshadow="2"
     inkscape:zoom="10.765625"
     inkscape:cx="32"
     inkscape:cy="32"
     inkscape:document-units="px"
     inkscape:current-layer="layer2"
     showgrid="true"
     inkscape:window-width="1327"
     inkscape:window-height="884"
     inkscape:window-x="91"
     inkscape:window-y="212"
     inkscape:window-maximized="0">
    <inkscape:grid
       type="xygrid"
       id="grid2985"
       empspacing="8"
       visible="true"
       enabled="true"
       snapvisiblegridlinesonly="true"
       spacingy="2px"
       spacingx="2px" />
  </sodipodi:namedview>
  <metadata
     id="metadata7">
    <rdf:RDF>
      <cc:Work
         rdf:about="">
        <dc:format>image/svg+xml</dc:format>
        <dc:type
           rdf:resource="http://purl.org/dc/dcmitype/StillImage" />
        <dc:title></dc:title>
      </cc:Work>
    </rdf:RDF>
  </metadata>
  <g
     inkscape:label="Background"
     inkscape:groupmode="layer"
     id="layer1"
     transform="translate(0,-988.3622)"
     style="display:inline" />
  <g
     inkscape:groupmode="layer"
     id="layer4"
     inkscape:label="Shadow"
     style="display:inline"
     transform="translate(0,32)">
    <path
       style="fill:#333333;fill-opacity:1;stroke:#333333;stroke-width:2;stroke-linejoin:round;stroke-miterlimit:4;stroke-opacity:1;stroke-dasharray:none;display:inline;filter:url(#filter3797)"
       d="m 1.9622642,6.0490566 4,-4 24.1378768,-0.026269 -0.137877,24.0262695 -4,4 -23.9999998,0 z"
       id="path2991-1"
       inkscape:connector-curvature="0"
       transform="matrix(1.9917058,0,0,1.9997518,0.04937537,-32.045073)"
       sodipodi:nodetypes="ccccccc" />
  </g>
  <g
     inkscape:groupmode="layer"
     id="layer2"
     inkscape:label="Button"
     style="display:inline"
     transform="translate(0,32)">
    <path
       style="fill:url(#linearGradient4384);fill-opacity:1.0;stroke:none;display:inline"
       d="m 2,-20 10,-10 50,0 0,50 -10,10 -50,0 z"
       id="path2991"
       inkscape:connector-curvature="0"
       inkscape:export-filename="C:\Documents and Settings\MARTINELLI.NEE\Documenti\Michele\WM_SquareMENU\icon_01.png"
       inkscape:export-xdpi="90"
       inkscape:export-ydpi="90"
       sodipodi:nodetypes="ccccccc" />
    <path
       inkscape:connector-curvature="0"
       d="m 27.635593,-0.30618679 c -2.3854,-1.22590001 -4.7043,-1.84790001 -6.894,-1.84790001 -0.2978,0 -0.5976,0.009 -0.8974,0.0354 -2.794,0.2312 -5.3461,0.9684 -6.9875,1.54140001 -0.4354,0.1599 -0.8817,0.3288 -1.3415,0.5153 L 7.0240929,15.507713 c 3.0851001,-1.1416 5.8146001,-1.6969 8.3135001,-1.6969 4.0423,0 6.9764,1.5104 9.3996,3.0652 1.1481,-3.8959 3.9022,-13.3044998 4.7241,-16.11619979 -0.5975,-0.3642 -1.2038,-0.7285 -1.8257,-1.066 z m 5.8059,3.95779999 -4.5223,15.7073998 c 1.3416,0.7686 5.8549,3.2025 9.3106,3.2025 2.7896,0 5.9126,-0.7148 9.5417,-2.1896 l 4.3178,-15.0987998 c -2.9316,0.9461 -5.7438,1.426 -8.3732,1.426 -4.7975,0 -8.1557,-1.5549 -10.2746,-3.0475 z m -11.7763,-11.114 c 3.8559,0.0399 6.7076,1.5104 9.0708,3.0251 l 4.6376,-15.8672002 c -0.9773,-0.5598 -3.5403,-1.9547 -5.3929,-2.43 -1.2193,-0.2842 -2.501,-0.4308 -3.8602,-0.4308 -2.5898,0.0488 -5.4194,0.6973 -8.6444,1.99 l -4.422,15.5298002 c 3.2404,-1.2218 6.0322,-1.817 8.6043,-1.817 0.0023,10e-5 0.0068,10e-5 0.0068,10e-5 z m 36.5589,-8.5333002 c -2.9407,1.1416 -5.8104,1.7233 -8.5514,1.7233 -4.5843,0 -7.9646,-1.5901 -10.1547,-3.1183 l -4.5975,15.9118002 c 3.0873,1.98540001 6.4145,2.9939 9.9061,2.9939 2.8474,0 5.797,-0.68399999 8.7731,-2.03439999 l -0.0091,-0.1111 0.1867,-0.0443 4.4468,-15.32090021 z"
       id="path8415"
       style="fill:#333333;fill-opacity:1" />
  </g>
  <g
     inkscape:groupmode="layer"
     id="layer3"
     inkscape:label="Text"
     transform="translate(0,32)" />
</svg>
