<?xml version="1.0" encoding="UTF-8" standalone="no"?>
<!-- Created with Inkscape (http://www.inkscape.org/) -->

<svg
   xmlns:dc="http://purl.org/dc/elements/1.1/"
   xmlns:cc="http://creativecommons.org/ns#"
   xmlns:rdf="http://www.w3.org/1999/02/22-rdf-syntax-ns#"
   xmlns:svg="http://www.w3.org/2000/svg"
   xmlns="http://www.w3.org/2000/svg"
   xmlns:xlink="http://www.w3.org/1999/xlink"
   xmlns:sodipodi="http://sodipodi.sourceforge.net/DTD/sodipodi-0.dtd"
   xmlns:inkscape="http://www.inkscape.org/namespaces/inkscape"
   width="64"
   height="64"
   id="svg2"
   version="1.1"
   inkscape:version="0.48.4 r9939"
   sodipodi:docname="Adm_icon_000.svg"
   inkscape:export-filename="C:\Documents and Settings\MARTINELLI.NEE\Documenti\Michele\ICON_32x32.png"
   inkscape:export-xdpi="90"
   inkscape:export-ydpi="90">
  <defs
     id="defs4">
    <linearGradient
       id="linearGradient4386">
      <stop
         id="stop4388"
         offset="0"
         style="stop-color:#888888;stop-opacity:1;" />
      <stop
         id="stop4390"
         offset="1"
         style="stop-color:#aaaaaa;stop-opacity:1;" />
    </linearGradient>
    <linearGradient
       id="linearGradient4378">
      <stop
         style="stop-color:#888888;stop-opacity:1;"
         offset="0"
         id="stop4380" />
      <stop
         style="stop-color:#888888;stop-opacity:0;"
         offset="1"
         id="stop4382" />
    </linearGradient>
    <filter
       inkscape:collect="always"
       id="filter3797"
       color-interpolation-filters="sRGB">
      <feGaussianBlur
         inkscape:collect="always"
         stdDeviation="0.42"
         id="feGaussianBlur3799" />
    </filter>
    <linearGradient
       inkscape:collect="always"
       xlink:href="#linearGradient4386"
       id="linearGradient4384"
       x1="6"
       y1="-26"
       x2="60"
       y2="26"
       gradientUnits="userSpaceOnUse" />
  </defs>
  <sodipodi:namedview
     id="base"
     pagecolor="#ffffff"
     bordercolor="#666666"
     borderopacity="1.0"
     inkscape:pageopacity="0.0"
     inkscape:pageshadow="2"
     inkscape:zoom="10.765625"
     inkscape:cx="32"
     inkscape:cy="32"
     inkscape:document-units="px"
     inkscape:current-layer="layer2"
     showgrid="true"
     inkscape:window-width="1327"
     inkscape:window-height="884"
     inkscape:window-x="98"
     inkscape:window-y="166"
     inkscape:window-maximized="0">
    <inkscape:grid
       type="xygrid"
       id="grid2985"
       empspacing="8"
       visible="true"
       enabled="true"
       snapvisiblegridlinesonly="true"
       spacingy="2px"
       spacingx="2px" />
  </sodipodi:namedview>
  <metadata
     id="metadata7">
    <rdf:RDF>
      <cc:Work
         rdf:about="">
        <dc:format>image/svg+xml</dc:format>
        <dc:type
           rdf:resource="http://purl.org/dc/dcmitype/StillImage" />
        <dc:title></dc:title>
      </cc:Work>
    </rdf:RDF>
  </metadata>
  <g
     inkscape:label="Background"
     inkscape:groupmode="layer"
     id="layer1"
     transform="translate(0,-988.3622)"
     style="display:inline" />
  <g
     inkscape:groupmode="layer"
     id="layer4"
     inkscape:label="Shadow"
     style="display:inline"
     transform="translate(0,32)">
    <path
       style="fill:#333333;fill-opacity:1;stroke:#333333;stroke-width:2;stroke-linejoin:round;stroke-miterlimit:4;stroke-opacity:1;stroke-dasharray:none;display:inline;filter:url(#filter3797)"
       d="m 1.9622642,6.0490566 4,-4 24.1378768,-0.026269 -0.137877,24.0262695 -4,4 -23.9999998,0 z"
       id="path2991-1"
       inkscape:connector-curvature="0"
       transform="matrix(1.9917058,0,0,1.9997518,0.04937537,-32.045073)"
       sodipodi:nodetypes="ccccccc" />
  </g>
  <g
     inkscape:groupmode="layer"
     id="layer2"
     inkscape:label="Button"
     style="display:inline"
     transform="translate(0,32)">
    <path
       style="fill:url(#linearGradient4384);fill-opacity:1.0;stroke:none;display:inline"
       d="m 2,-20 10,-10 50,0 0,50 -10,10 -50,0 z"
       id="path2991"
       inkscape:connector-curvature="0"
       inkscape:export-filename="C:\Documents and Settings\MARTINELLI.NEE\Documenti\Michele\WM_SquareMENU\icon_01.png"
       inkscape:export-xdpi="90"
       inkscape:export-ydpi="90"
       sodipodi:nodetypes="ccccccc" />
    <path
       d="m 50.541074,-9.684352 c -1.76,0 -3.2,1.44 -3.2,3.2 l 0,12.8 c 0,1.76 1.44,3.2 3.2,3.2 1.76,0 3.2,-1.44 3.2,-3.2 l 0,-12.8 c 0,-1.76 -1.44,-3.2 -3.2,-3.2 z m -38.4,0 c -1.76,0 -3.2,1.44 -3.2,3.2 l 0,12.8 c 0,1.76 1.44,3.2 3.2,3.2 1.76,0 3.2,-1.44 3.2,-3.2 l 0,-12.8 c 0,-1.76 -1.4401,-3.2 -3.2,-3.2 z m 4.8,20.8 c 0,2.651 2.149,4.8 4.8,4.8 l 1.6,0 0,6.4 c 0,1.76 1.44,3.2 3.2,3.2 1.76,0 3.2,-1.44 3.2,-3.2 l 0,-6.4 3.2,0 0,6.4 c 0,1.76 1.4401,3.2 3.2,3.2 1.7599,0 3.2,-1.44 3.2,-3.2 l 0,-6.4 1.6,0 c 2.651,0 4.8,-2.149 4.8,-4.8 l 0,-17.6 -28.8,0 0,17.6 z m 20.3299,-32.3253 2.0252,-3.8903 c 0.1016,-0.1951 0.025,-0.4379 -0.1701,-0.5395 -0.1951,-0.1016 -0.4379,-0.025 -0.5395,0.1701 l -2.0559,3.9493 c -1.6099,-0.6224 -3.3597,-0.9643 -5.1896,-0.9643 -1.8298,0 -3.5796,0.3419 -5.1898,0.9643 l -2.0558,-3.9492 c -0.1016,-0.1951 -0.3443,-0.2717 -0.5395,-0.1701 -0.1952,0.1016 -0.2717,0.3443 -0.1701,0.5395 l 2.025,3.8904 c -4.5315,2.0509 -7.812,6.3792 -8.381,11.5252 l 28.622,0 c -0.5688,-5.1462 -3.8493,-9.4744 -8.3809,-11.5254 z m -12.3299,9.0453 c -1.2813,0 -2.32,-1.0387 -2.32,-2.32 0,-1.2813 1.0387,-2.32 2.32,-2.32 1.2813,0 2.32,1.0387 2.32,2.32 -10e-5,1.2813 -1.0387,2.32 -2.32,2.32 z m 12.8,0 c -1.2813,0 -2.3201,-1.0387 -2.3201,-2.32 0,-1.2813 1.0389,-2.32 2.3201,-2.32 1.2812,0 2.3199,1.0387 2.3199,2.32 0,1.2813 -1.0386,2.32 -2.3199,2.32 z"
       id="path5114"
       inkscape:connector-curvature="0"
       style="fill:#333333;fill-opacity:1" />
  </g>
  <g
     inkscape:groupmode="layer"
     id="layer3"
     inkscape:label="Text"
     transform="translate(0,32)" />
</svg>
