<?xml version="1.0" encoding="UTF-8" standalone="no"?>
<!-- Created with Inkscape (http://www.inkscape.org/) -->

<svg
   xmlns:dc="http://purl.org/dc/elements/1.1/"
   xmlns:cc="http://creativecommons.org/ns#"
   xmlns:rdf="http://www.w3.org/1999/02/22-rdf-syntax-ns#"
   xmlns:svg="http://www.w3.org/2000/svg"
   xmlns="http://www.w3.org/2000/svg"
   xmlns:xlink="http://www.w3.org/1999/xlink"
   xmlns:sodipodi="http://sodipodi.sourceforge.net/DTD/sodipodi-0.dtd"
   xmlns:inkscape="http://www.inkscape.org/namespaces/inkscape"
   width="64"
   height="64"
   id="svg2"
   version="1.1"
   inkscape:version="0.48.4 r9939"
   sodipodi:docname="Adm_icon_Config.svg"
   inkscape:export-filename="C:\Documents and Settings\MARTINELLI.NEE\Documenti\Michele\ICON_32x32.png"
   inkscape:export-xdpi="90"
   inkscape:export-ydpi="90">
  <defs
     id="defs4">
    <linearGradient
       id="linearGradient4386">
      <stop
         id="stop4388"
         offset="0"
         style="stop-color:#888888;stop-opacity:1;" />
      <stop
         id="stop4390"
         offset="1"
         style="stop-color:#aaaaaa;stop-opacity:1;" />
    </linearGradient>
    <linearGradient
       id="linearGradient4378">
      <stop
         style="stop-color:#888888;stop-opacity:1;"
         offset="0"
         id="stop4380" />
      <stop
         style="stop-color:#888888;stop-opacity:0;"
         offset="1"
         id="stop4382" />
    </linearGradient>
    <filter
       inkscape:collect="always"
       id="filter3797"
       color-interpolation-filters="sRGB">
      <feGaussianBlur
         inkscape:collect="always"
         stdDeviation="0.42"
         id="feGaussianBlur3799" />
    </filter>
    <linearGradient
       inkscape:collect="always"
       xlink:href="#linearGradient4386"
       id="linearGradient4384"
       x1="6"
       y1="-26"
       x2="60"
       y2="26"
       gradientUnits="userSpaceOnUse" />
  </defs>
  <sodipodi:namedview
     id="base"
     pagecolor="#ffffff"
     bordercolor="#666666"
     borderopacity="1.0"
     inkscape:pageopacity="0.0"
     inkscape:pageshadow="2"
     inkscape:zoom="9.4375"
     inkscape:cx="32"
     inkscape:cy="32"
     inkscape:document-units="px"
     inkscape:current-layer="layer2"
     showgrid="true"
     inkscape:window-width="1154"
     inkscape:window-height="794"
     inkscape:window-x="106"
     inkscape:window-y="328"
     inkscape:window-maximized="0">
    <inkscape:grid
       type="xygrid"
       id="grid2985"
       empspacing="8"
       visible="true"
       enabled="true"
       snapvisiblegridlinesonly="true"
       spacingy="2px"
       spacingx="2px" />
  </sodipodi:namedview>
  <metadata
     id="metadata7">
    <rdf:RDF>
      <cc:Work
         rdf:about="">
        <dc:format>image/svg+xml</dc:format>
        <dc:type
           rdf:resource="http://purl.org/dc/dcmitype/StillImage" />
        <dc:title></dc:title>
      </cc:Work>
    </rdf:RDF>
  </metadata>
  <g
     inkscape:label="Background"
     inkscape:groupmode="layer"
     id="layer1"
     transform="translate(0,-988.3622)"
     style="display:inline" />
  <g
     inkscape:groupmode="layer"
     id="layer4"
     inkscape:label="Shadow"
     style="display:inline"
     transform="translate(0,32)">
    <path
       style="fill:#333333;fill-opacity:1;stroke:#333333;stroke-width:2;stroke-linejoin:round;stroke-miterlimit:4;stroke-opacity:1;stroke-dasharray:none;display:inline;filter:url(#filter3797)"
       d="m 1.9622642,6.0490566 4,-4 24.1378768,-0.026269 -0.137877,24.0262695 -4,4 -23.9999998,0 z"
       id="path2991-1"
       inkscape:connector-curvature="0"
       transform="matrix(1.9917058,0,0,1.9997518,0.04937537,-32.045073)"
       sodipodi:nodetypes="ccccccc" />
  </g>
  <g
     inkscape:groupmode="layer"
     id="layer2"
     inkscape:label="Button"
     style="display:inline"
     transform="translate(0,32)">
    <path
       style="fill:url(#linearGradient4384);fill-opacity:1.0;stroke:none;display:inline"
       d="m 2,-20 10,-10 50,0 0,50 -10,10 -50,0 z"
       id="path2991"
       inkscape:connector-curvature="0"
       inkscape:export-filename="C:\Documents and Settings\MARTINELLI.NEE\Documenti\Michele\WM_SquareMENU\icon_01.png"
       inkscape:export-xdpi="90"
       inkscape:export-ydpi="90"
       sodipodi:nodetypes="ccccccc" />
    <path
       inkscape:connector-curvature="0"
       d="m 51.219248,-25.944371 3.3622,28.5780001 -3.774,0.444 -3.0026,-25.5220001 -31.8208,0 -3.0026,25.5220001 -3.7740003,-0.444 3.3621003,-28.5780001 z m -32.1248,6.4 25.6,0 0,3.2 -25.6,0 z m 0,6.4 25.6,0 0,3.2000001 -25.6,0 z m 0,6.4000001 25.6,0 0,3.2 -25.6,0 z m 0,6.40000004 25.6,0 0,3.19999996 -25.6,0 z m 36.8,6.39999996 -48.0000003,0 c -0.88,0 -1.3723,0.683 -1.094,1.5179 L 12.188448,23.737729 c 0.2783,0.8349 1.226,1.5179 2.106,1.5179 l 35.2,0 c 0.88,0 1.8276,-0.683 2.106,-1.5179 l 5.3881,-16.1642999 c 0.2783,-0.8348 -0.2141,-1.5178 -1.0941,-1.5178 z m -17.6,6.3999999 -12.8,0 0,-3.1999999 12.8,0 0,3.1999999 z"
       id="path47544"
       style="fill:#333333;fill-opacity:1" />
  </g>
  <g
     inkscape:groupmode="layer"
     id="layer3"
     inkscape:label="Text"
     transform="translate(0,32)" />
</svg>
