<?xml version="1.0" encoding="UTF-8" standalone="no"?>
<!-- Created with Inkscape (http://www.inkscape.org/) -->

<svg
   xmlns:dc="http://purl.org/dc/elements/1.1/"
   xmlns:cc="http://creativecommons.org/ns#"
   xmlns:rdf="http://www.w3.org/1999/02/22-rdf-syntax-ns#"
   xmlns:svg="http://www.w3.org/2000/svg"
   xmlns="http://www.w3.org/2000/svg"
   xmlns:xlink="http://www.w3.org/1999/xlink"
   xmlns:sodipodi="http://sodipodi.sourceforge.net/DTD/sodipodi-0.dtd"
   xmlns:inkscape="http://www.inkscape.org/namespaces/inkscape"
   version="1.0"
   width="96"
   height="96"
   id="svg2408"
   style="display:inline"
   inkscape:version="0.48.4 r9939"
   sodipodi:docname="WM_UMC_Ino.svg"
   inkscape:export-filename="/mnt/Web_eMMe/Web Developer/WM_framework/Immagini/WM_Fonts.png"
   inkscape:export-xdpi="30"
   inkscape:export-ydpi="30">
  <sodipodi:namedview
     pagecolor="#ffffff"
     bordercolor="#666666"
     borderopacity="1"
     objecttolerance="10"
     gridtolerance="10"
     guidetolerance="10"
     inkscape:pageopacity="0"
     inkscape:pageshadow="2"
     inkscape:window-width="1162"
     inkscape:window-height="814"
     id="namedview3169"
     showgrid="true"
     inkscape:zoom="5.1979167"
     inkscape:cx="46.845691"
     inkscape:cy="48"
     inkscape:window-x="631"
     inkscape:window-y="298"
     inkscape:window-maximized="0"
     inkscape:current-layer="svg2408"
     showguides="true"
     inkscape:guide-bbox="true">
    <inkscape:grid
       type="xygrid"
       id="grid3023"
       empspacing="8"
       visible="true"
       enabled="true"
       snapvisiblegridlinesonly="true"
       spacingx="2px"
       spacingy="2px" />
  </sodipodi:namedview>
  <defs
     id="defs2410">
    <linearGradient
       id="linearGradient3971">
      <stop
         style="stop-color:#ffffff;stop-opacity:1"
         offset="0"
         id="stop3973" />
      <stop
         style="stop-color:#dedede;stop-opacity:0;"
         offset="1"
         id="stop3975" />
    </linearGradient>
    <linearGradient
       x1="45.447727"
       y1="92.539597"
       x2="45.447727"
       y2="7.0165396"
       id="ButtonShadow"
       gradientUnits="userSpaceOnUse"
       gradientTransform="scale(1.0058652,0.994169)">
      <stop
         id="stop3750"
         style="stop-color:#000000;stop-opacity:1"
         offset="0" />
      <stop
         id="stop3752"
         style="stop-color:#000000;stop-opacity:0.58823532"
         offset="1" />
    </linearGradient>
    <linearGradient
       id="linearGradient3700">
      <stop
         id="stop3702"
         style="stop-color:#e6e6e6;stop-opacity:1"
         offset="0" />
      <stop
         id="stop3704"
         style="stop-color:#f5f5f5;stop-opacity:1"
         offset="1" />
    </linearGradient>
    <linearGradient
       x1="48"
       y1="90"
       x2="48"
       y2="5.9877172"
       id="linearGradient3706"
       xlink:href="#linearGradient3700"
       gradientUnits="userSpaceOnUse" />
    <filter
       color-interpolation-filters="sRGB"
       id="filter3174">
      <feGaussianBlur
         id="feGaussianBlur3176"
         stdDeviation="1.71" />
    </filter>
    <linearGradient
       x1="45.447727"
       y1="92.539597"
       x2="45.447727"
       y2="7.0165396"
       id="ButtonShadow-0"
       gradientUnits="userSpaceOnUse"
       gradientTransform="matrix(1.0058652,0,0,0.994169,100,0)">
      <stop
         id="stop3750-8"
         style="stop-color:#000000;stop-opacity:1"
         offset="0" />
      <stop
         id="stop3752-5"
         style="stop-color:#000000;stop-opacity:0.58823532"
         offset="1" />
    </linearGradient>
    <linearGradient
       x1="32.251034"
       y1="6.1317081"
       x2="32.251034"
       y2="90.238609"
       id="linearGradient3780"
       xlink:href="#ButtonShadow-0"
       gradientUnits="userSpaceOnUse"
       gradientTransform="matrix(1.0238095,0,0,1.0119048,-1.1428571,-98.071429)" />
    <linearGradient
       x1="32.251034"
       y1="6.1317081"
       x2="32.251034"
       y2="90.238609"
       id="linearGradient3772"
       xlink:href="#ButtonShadow-0"
       gradientUnits="userSpaceOnUse"
       gradientTransform="matrix(1.0238095,0,0,1.0119048,-1.1428571,-98.071429)" />
    <linearGradient
       x1="32.251034"
       y1="6.1317081"
       x2="32.251034"
       y2="90.238609"
       id="linearGradient3725"
       xlink:href="#ButtonShadow-0"
       gradientUnits="userSpaceOnUse"
       gradientTransform="matrix(1.0238095,0,0,1.0119048,-1.1428571,-98.071429)" />
    <linearGradient
       x1="32.251034"
       y1="6.1317081"
       x2="32.251034"
       y2="90.238609"
       id="linearGradient3721"
       xlink:href="#ButtonShadow-0"
       gradientUnits="userSpaceOnUse"
       gradientTransform="translate(0,-97)" />
    <linearGradient
       x1="32.251034"
       y1="6.1317081"
       x2="32.251034"
       y2="90.238609"
       id="linearGradient3760"
       xlink:href="#ButtonShadow-0"
       gradientUnits="userSpaceOnUse"
       gradientTransform="matrix(1.0238095,0,0,1.0119048,-1.1428571,-98.071429)" />
    <linearGradient
       id="linearGradient3737-1">
      <stop
         id="stop3739-9"
         style="stop-color:#ffffff;stop-opacity:1"
         offset="0" />
      <stop
         id="stop3741-3"
         style="stop-color:#ffffff;stop-opacity:0"
         offset="1" />
    </linearGradient>
    <radialGradient
       cx="48"
       cy="90.171875"
       r="42"
       fx="48"
       fy="90.171875"
       id="radialGradient2886"
       xlink:href="#linearGradient3737-0"
       gradientUnits="userSpaceOnUse"
       gradientTransform="matrix(1.1573129,0,0,0.99590774,-7.551021,0.1971319)" />
    <linearGradient
       id="linearGradient3737-0">
      <stop
         id="stop3739-6"
         style="stop-color:#ffffff;stop-opacity:1"
         offset="0" />
      <stop
         id="stop3741-0"
         style="stop-color:#ffffff;stop-opacity:0"
         offset="1" />
    </linearGradient>
    <linearGradient
       x1="36.357143"
       y1="6"
       x2="36.357143"
       y2="63.893143"
       id="linearGradient3923"
       xlink:href="#linearGradient3737-1"
       gradientUnits="userSpaceOnUse" />
    <linearGradient
       id="linearGradient3737-9">
      <stop
         id="stop3739-2"
         style="stop-color:#ffffff;stop-opacity:1"
         offset="0" />
      <stop
         id="stop3741-1"
         style="stop-color:#ffffff;stop-opacity:0"
         offset="1" />
    </linearGradient>
    <clipPath
       id="clipPath3613">
      <rect
         width="84"
         height="84"
         rx="6"
         ry="6"
         x="6"
         y="6"
         id="rect3615"
         style="fill:#ffffff;fill-opacity:1;fill-rule:nonzero;stroke:none" />
    </clipPath>
    <filter
       x="-0.192"
       y="-0.192"
       width="1.3839999"
       height="1.3839999"
       color-interpolation-filters="sRGB"
       id="filter3794">
      <feGaussianBlur
         id="feGaussianBlur3796"
         stdDeviation="5.28" />
    </filter>
    <linearGradient
       x1="48"
       y1="20.220806"
       x2="48"
       y2="138.66119"
       id="linearGradient2890"
       xlink:href="#linearGradient3737-9"
       gradientUnits="userSpaceOnUse" />
    <filter
       inkscape:collect="always"
       id="filter3967">
      <feGaussianBlur
         inkscape:collect="always"
         stdDeviation="0.84"
         id="feGaussianBlur3969" />
    </filter>
    <linearGradient
       inkscape:collect="always"
       xlink:href="#linearGradient3971"
       id="linearGradient3977"
       x1="16"
       y1="16"
       x2="92"
       y2="92"
       gradientUnits="userSpaceOnUse" />
    <linearGradient
       x1="20.758585"
       y1="1"
       x2="20.758585"
       y2="45.017357"
       id="linearGradient3141"
       xlink:href="#linearGradient3309"
       gradientUnits="userSpaceOnUse"
       gradientTransform="matrix(1.2790652,0,0,1.2790652,17.302433,18.5815)" />
    <linearGradient
       x1="63.9995"
       y1="3.1001"
       x2="63.9995"
       y2="122.8994"
       id="linearGradient3309"
       gradientUnits="userSpaceOnUse">
      <stop
         id="stop3311"
         style="stop-color:#f0f0f0;stop-opacity:1"
         offset="0" />
      <stop
         id="stop3313"
         style="stop-color:#aaaaaa;stop-opacity:1"
         offset="1" />
    </linearGradient>
    <clipPath
       id="clipPath4403">
      <path
         d="m 30.916245,135.971 c -0.937266,0.54113 -1.228304,1.74752 -0.677924,2.7008 l 1.9375,3.35585 c -1.418086,1.4141 -2.622273,3.01198 -3.595451,4.71 l -3.783634,-0.99095 c -0.531629,-0.14245 -1.037926,-0.11751 -1.476221,0.13061 -0.438159,0.24835 -0.796545,0.66758 -0.936598,1.19027 l -1.978825,7.38507 c -0.280102,1.04538 0.365953,2.06538 1.429126,2.35032 l 3.772195,1.03363 c -0.0062,1.95711 0.237711,3.94301 0.758755,5.87671 l -3.355849,1.9375 c -0.95328,0.55037 -1.304431,1.74066 -0.763301,2.67792 l 3.8125,6.60344 c 0.54113,0.93727 1.747521,1.2283 2.700801,0.67793 l 3.355849,-1.9375 c 1.414106,1.41808 3.011983,2.62227 4.709995,3.59545 l -0.990945,3.78363 c -0.284894,1.06325 0.275431,2.13275 1.320874,2.41282 l 7.385075,1.97883 c 1.045371,0.28011 2.065425,-0.36588 2.35032,-1.42913 l 1.033633,-3.77219 c 1.957118,0.006 3.943015,-0.23771 5.876701,-0.75876 l 1.9375,3.35585 c 0.550375,0.95328 1.740658,1.30443 2.677924,0.7633 l 6.603444,-3.8125 c 0.937258,-0.54113 1.228299,-1.74752 0.677924,-2.7008 l -1.9375,-3.35585 c 1.418087,-1.4141 2.622272,-3.01197 3.595452,-4.70999 l 3.783633,0.99094 c 1.063244,0.2849 2.132709,-0.27549 2.41282,-1.32087 l 1.978825,-7.38508 c 0.280102,-1.04537 -0.365953,-2.06538 -1.429127,-2.35032 l -3.772195,-1.03363 c 0.0062,-1.95711 -0.237701,-3.94301 -0.758754,-5.8767 l 3.355848,-1.9375 c 0.953272,-0.55037 1.304431,-1.74066 0.763301,-2.67793 l -3.8125,-6.60344 c -0.54113,-0.93726 -1.747529,-1.2283 -2.700801,-0.67792 l -3.355849,1.9375 c -1.414093,-1.4181 -3.011984,-2.62228 -4.709995,-3.59546 l 0.990945,-3.78363 c 0.284894,-1.06324 -0.275422,-2.13275 -1.320874,-2.41282 l -7.385074,-1.97882 c -1.045381,-0.28011 -2.065426,0.36588 -2.35032,1.42912 l -1.033633,3.7722 c -1.95712,-0.006 -3.943015,0.2377 -5.876702,0.75875 l -1.9375,-3.35585 c -0.55038,-0.95328 -1.740666,-1.30442 -2.677924,-0.7633 l -6.603444,3.8125 z m 10.051722,9.7851 c 6.696096,-3.866 15.258361,-1.57175 19.124356,5.12435 3.865995,6.6961 1.57174,15.25836 -5.124356,19.12436 -6.696096,3.86599 -15.258361,1.57174 -19.124356,-5.12436 -3.865995,-6.6961 -1.57174,-15.25836 5.124356,-19.12435 z"
         inkscape:connector-curvature="0"
         id="path4405"
         style="fill:url(#linearGradient4407);fill-opacity:1;fill-rule:nonzero;stroke:none;stroke-width:1;marker:none;visibility:visible;display:block;overflow:visible;enable-background:accumulate" />
    </clipPath>
    <linearGradient
       x1="48.233639"
       y1="48.047016"
       x2="126.13924"
       y2="66.232674"
       id="linearGradient4213"
       xlink:href="#linearGradient4071-3"
       gradientUnits="userSpaceOnUse" />
    <linearGradient
       id="linearGradient4071-3">
      <stop
         id="stop4073-8"
         style="stop-color:#000000;stop-opacity:1"
         offset="0" />
      <stop
         id="stop4075-4"
         style="stop-color:#000000;stop-opacity:0"
         offset="1" />
    </linearGradient>
    <linearGradient
       x1="48.055065"
       y1="48.031517"
       x2="126.67282"
       y2="62.838562"
       id="linearGradient4215"
       xlink:href="#linearGradient4047-2"
       gradientUnits="userSpaceOnUse" />
    <linearGradient
       id="linearGradient4047-2">
      <stop
         id="stop4049-0"
         style="stop-color:#000000;stop-opacity:1"
         offset="0" />
      <stop
         id="stop4051-5"
         style="stop-color:#000000;stop-opacity:0"
         offset="1" />
    </linearGradient>
    <linearGradient
       x1="47.997307"
       y1="48.028725"
       x2="127.05216"
       y2="60.289631"
       id="linearGradient4217"
       xlink:href="#linearGradient4047-2"
       gradientUnits="userSpaceOnUse" />
    <linearGradient
       id="linearGradient3118">
      <stop
         id="stop3120"
         style="stop-color:#000000;stop-opacity:1"
         offset="0" />
      <stop
         id="stop3122"
         style="stop-color:#000000;stop-opacity:0"
         offset="1" />
    </linearGradient>
    <linearGradient
       x1="47.99826"
       y1="48.028797"
       x2="127.41583"
       y2="57.664623"
       id="linearGradient4219"
       xlink:href="#linearGradient4047-2"
       gradientUnits="userSpaceOnUse" />
    <linearGradient
       id="linearGradient3125">
      <stop
         id="stop3127"
         style="stop-color:#000000;stop-opacity:1"
         offset="0" />
      <stop
         id="stop3129"
         style="stop-color:#000000;stop-opacity:0"
         offset="1" />
    </linearGradient>
    <linearGradient
       x1="48.233643"
       y1="48.04702"
       x2="126.13924"
       y2="66.232674"
       id="linearGradient4221"
       xlink:href="#linearGradient4115-2"
       gradientUnits="userSpaceOnUse" />
    <linearGradient
       id="linearGradient4115-2">
      <stop
         id="stop4117-3"
         style="stop-color:#ffffff;stop-opacity:1"
         offset="0" />
      <stop
         id="stop4119-6"
         style="stop-color:#ffffff;stop-opacity:0"
         offset="1" />
    </linearGradient>
    <linearGradient
       x1="48.055069"
       y1="48.031521"
       x2="126.67282"
       y2="62.838566"
       id="linearGradient4223"
       xlink:href="#linearGradient4115-2"
       gradientUnits="userSpaceOnUse" />
    <linearGradient
       id="linearGradient3136">
      <stop
         id="stop3138"
         style="stop-color:#ffffff;stop-opacity:1"
         offset="0" />
      <stop
         id="stop3140"
         style="stop-color:#ffffff;stop-opacity:0"
         offset="1" />
    </linearGradient>
    <linearGradient
       x1="47.997311"
       y1="48.028728"
       x2="127.05216"
       y2="60.289635"
       id="linearGradient4225"
       xlink:href="#linearGradient4115-2"
       gradientUnits="userSpaceOnUse" />
    <linearGradient
       id="linearGradient3143">
      <stop
         id="stop3145"
         style="stop-color:#ffffff;stop-opacity:1"
         offset="0" />
      <stop
         id="stop3147"
         style="stop-color:#ffffff;stop-opacity:0"
         offset="1" />
    </linearGradient>
    <linearGradient
       x1="47.998264"
       y1="48.028801"
       x2="127.41583"
       y2="57.664627"
       id="linearGradient4227"
       xlink:href="#linearGradient4115-2"
       gradientUnits="userSpaceOnUse" />
    <linearGradient
       id="linearGradient3150">
      <stop
         id="stop3152"
         style="stop-color:#ffffff;stop-opacity:1"
         offset="0" />
      <stop
         id="stop3154"
         style="stop-color:#ffffff;stop-opacity:0"
         offset="1" />
    </linearGradient>
    <linearGradient
       x1="48.233639"
       y1="48.047016"
       x2="126.13924"
       y2="66.232674"
       id="linearGradient4229"
       xlink:href="#linearGradient4071-3"
       gradientUnits="userSpaceOnUse" />
    <linearGradient
       id="linearGradient3157">
      <stop
         id="stop3159"
         style="stop-color:#000000;stop-opacity:1"
         offset="0" />
      <stop
         id="stop3161"
         style="stop-color:#000000;stop-opacity:0"
         offset="1" />
    </linearGradient>
    <linearGradient
       x1="48.055065"
       y1="48.031517"
       x2="126.67282"
       y2="62.838562"
       id="linearGradient4231"
       xlink:href="#linearGradient4047-2"
       gradientUnits="userSpaceOnUse" />
    <linearGradient
       id="linearGradient3164">
      <stop
         id="stop3166"
         style="stop-color:#000000;stop-opacity:1"
         offset="0" />
      <stop
         id="stop3168"
         style="stop-color:#000000;stop-opacity:0"
         offset="1" />
    </linearGradient>
    <linearGradient
       x1="47.997307"
       y1="48.028725"
       x2="127.05216"
       y2="60.289631"
       id="linearGradient4233"
       xlink:href="#linearGradient4047-2"
       gradientUnits="userSpaceOnUse" />
    <linearGradient
       id="linearGradient3171">
      <stop
         id="stop3173"
         style="stop-color:#000000;stop-opacity:1"
         offset="0" />
      <stop
         id="stop3175"
         style="stop-color:#000000;stop-opacity:0"
         offset="1" />
    </linearGradient>
    <linearGradient
       x1="47.99826"
       y1="48.028797"
       x2="127.41583"
       y2="57.664623"
       id="linearGradient4235"
       xlink:href="#linearGradient4047-2"
       gradientUnits="userSpaceOnUse" />
    <linearGradient
       id="linearGradient3178">
      <stop
         id="stop3180"
         style="stop-color:#000000;stop-opacity:1"
         offset="0" />
      <stop
         id="stop3182"
         style="stop-color:#000000;stop-opacity:0"
         offset="1" />
    </linearGradient>
    <linearGradient
       x1="48.233639"
       y1="48.047016"
       x2="126.13924"
       y2="66.232674"
       id="linearGradient4237"
       xlink:href="#linearGradient4071-3"
       gradientUnits="userSpaceOnUse" />
    <linearGradient
       id="linearGradient3185">
      <stop
         id="stop3187"
         style="stop-color:#000000;stop-opacity:1"
         offset="0" />
      <stop
         id="stop3189"
         style="stop-color:#000000;stop-opacity:0"
         offset="1" />
    </linearGradient>
    <linearGradient
       x1="48.055065"
       y1="48.031517"
       x2="126.67282"
       y2="62.838562"
       id="linearGradient4239"
       xlink:href="#linearGradient4047-2"
       gradientUnits="userSpaceOnUse" />
    <linearGradient
       id="linearGradient3192">
      <stop
         id="stop3194"
         style="stop-color:#000000;stop-opacity:1"
         offset="0" />
      <stop
         id="stop3196"
         style="stop-color:#000000;stop-opacity:0"
         offset="1" />
    </linearGradient>
    <linearGradient
       x1="47.997307"
       y1="48.028725"
       x2="127.05216"
       y2="60.289631"
       id="linearGradient4241"
       xlink:href="#linearGradient4047-2"
       gradientUnits="userSpaceOnUse" />
    <linearGradient
       id="linearGradient3199">
      <stop
         id="stop3201"
         style="stop-color:#000000;stop-opacity:1"
         offset="0" />
      <stop
         id="stop3203"
         style="stop-color:#000000;stop-opacity:0"
         offset="1" />
    </linearGradient>
    <linearGradient
       x1="47.99826"
       y1="48.028797"
       x2="127.41583"
       y2="57.664623"
       id="linearGradient4243"
       xlink:href="#linearGradient4047-2"
       gradientUnits="userSpaceOnUse" />
    <linearGradient
       id="linearGradient3206">
      <stop
         id="stop3208"
         style="stop-color:#000000;stop-opacity:1"
         offset="0" />
      <stop
         id="stop3210"
         style="stop-color:#000000;stop-opacity:0"
         offset="1" />
    </linearGradient>
    <linearGradient
       x1="48.233643"
       y1="48.04702"
       x2="126.13924"
       y2="66.232674"
       id="linearGradient4245"
       xlink:href="#linearGradient4115-2"
       gradientUnits="userSpaceOnUse" />
    <linearGradient
       id="linearGradient3213">
      <stop
         id="stop3215"
         style="stop-color:#ffffff;stop-opacity:1"
         offset="0" />
      <stop
         id="stop3217"
         style="stop-color:#ffffff;stop-opacity:0"
         offset="1" />
    </linearGradient>
    <linearGradient
       x1="48.055069"
       y1="48.031521"
       x2="126.67282"
       y2="62.838566"
       id="linearGradient4247"
       xlink:href="#linearGradient4115-2"
       gradientUnits="userSpaceOnUse" />
    <linearGradient
       id="linearGradient3220">
      <stop
         id="stop3222"
         style="stop-color:#ffffff;stop-opacity:1"
         offset="0" />
      <stop
         id="stop3224"
         style="stop-color:#ffffff;stop-opacity:0"
         offset="1" />
    </linearGradient>
    <linearGradient
       x1="47.997311"
       y1="48.028728"
       x2="127.05216"
       y2="60.289635"
       id="linearGradient4249"
       xlink:href="#linearGradient4115-2"
       gradientUnits="userSpaceOnUse" />
    <linearGradient
       id="linearGradient3227">
      <stop
         id="stop3229"
         style="stop-color:#ffffff;stop-opacity:1"
         offset="0" />
      <stop
         id="stop3231"
         style="stop-color:#ffffff;stop-opacity:0"
         offset="1" />
    </linearGradient>
    <linearGradient
       x1="47.998264"
       y1="48.028801"
       x2="127.41583"
       y2="57.664627"
       id="linearGradient4251"
       xlink:href="#linearGradient4115-2"
       gradientUnits="userSpaceOnUse" />
    <linearGradient
       id="linearGradient3234">
      <stop
         id="stop3236"
         style="stop-color:#ffffff;stop-opacity:1"
         offset="0" />
      <stop
         id="stop3238"
         style="stop-color:#ffffff;stop-opacity:0"
         offset="1" />
    </linearGradient>
    <linearGradient
       x1="48"
       y1="20.220806"
       x2="48"
       y2="138.66119"
       id="linearGradient3613"
       xlink:href="#linearGradient3737"
       gradientUnits="userSpaceOnUse" />
    <linearGradient
       id="linearGradient3737">
      <stop
         id="stop3739"
         style="stop-color:#ffffff;stop-opacity:1"
         offset="0" />
      <stop
         id="stop3741"
         style="stop-color:#ffffff;stop-opacity:0"
         offset="1" />
    </linearGradient>
    <clipPath
       id="clipPath3613-5">
      <rect
         width="84"
         height="84"
         rx="6"
         ry="6"
         x="6"
         y="6"
         id="rect3615-4"
         style="fill:#ffffff;fill-opacity:1;fill-rule:nonzero;stroke:none" />
    </clipPath>
    <filter
       x="-0.192"
       y="-0.192"
       width="1.3839999"
       height="1.3839999"
       color-interpolation-filters="sRGB"
       id="filter3794-8">
      <feGaussianBlur
         id="feGaussianBlur3796-1"
         stdDeviation="5.28" />
    </filter>
    <linearGradient
       y2="138.66119"
       x2="48"
       y1="20.220806"
       x1="48"
       gradientUnits="userSpaceOnUse"
       id="linearGradient3062"
       xlink:href="#linearGradient3737"
       inkscape:collect="always" />
    <linearGradient
       x1="56"
       y1="16"
       x2="56"
       y2="80"
       id="linearGradient3736"
       xlink:href="#StandardGradient-3"
       gradientUnits="userSpaceOnUse"
       gradientTransform="matrix(0.94249199,0,0,0.94249199,-97.239616,0.875402)" />
    <linearGradient
       x1="11.998966"
       y1="0.92195445"
       x2="11.998966"
       y2="19.387045"
       id="StandardGradient-3"
       gradientUnits="userSpaceOnUse"
       gradientTransform="scale(0.9219544,1.0846523)">
      <stop
         id="stop3283-5"
         style="stop-color:#000000;stop-opacity:0.86274511"
         offset="0" />
      <stop
         id="stop2651-2"
         style="stop-color:#000000;stop-opacity:0.47058824"
         offset="1" />
    </linearGradient>
    <linearGradient
       x1="49"
       y1="20"
       x2="49"
       y2="76"
       id="linearGradient3829"
       xlink:href="#StandardGradient"
       gradientUnits="userSpaceOnUse" />
    <linearGradient
       x1="11.998966"
       y1="0.92195445"
       x2="11.998966"
       y2="19.387045"
       id="StandardGradient"
       gradientUnits="userSpaceOnUse"
       gradientTransform="scale(0.9219544,1.0846523)">
      <stop
         id="stop3283"
         style="stop-color:#000000;stop-opacity:0.86274511"
         offset="0" />
      <stop
         id="stop2651"
         style="stop-color:#000000;stop-opacity:0.47058824"
         offset="1" />
    </linearGradient>
    <radialGradient
       cx="372.90503"
       cy="376.39664"
       r="364.52515"
       fx="372.90503"
       fy="376.39664"
       id="radialGradient3046"
       xlink:href="#linearGradient3870"
       gradientUnits="userSpaceOnUse"
       gradientTransform="matrix(1,0,0,0.98659002,0,5.0474716)" />
    <linearGradient
       id="linearGradient3870">
      <stop
         id="stop3872"
         style="stop-color:#e0e9f2;stop-opacity:1"
         offset="0" />
      <stop
         id="stop3902"
         style="stop-color:#c7d7e8;stop-opacity:1"
         offset="0.828125" />
      <stop
         id="stop5311"
         style="stop-color:#b2c8df;stop-opacity:1"
         offset="0.9140625" />
      <stop
         id="stop3874"
         style="stop-color:#7ea3ca;stop-opacity:1"
         offset="1" />
    </linearGradient>
    <radialGradient
       cx="25.102606"
       cy="22.634785"
       r="19.18985"
       fx="25.102606"
       fy="22.634785"
       id="radialGradient2720"
       xlink:href="#linearGradient3904"
       gradientUnits="userSpaceOnUse"
       gradientTransform="matrix(1.2425636,-1.228748e-8,1.1872434e-8,1.2005923,16.808412,19.21595)" />
    <linearGradient
       id="linearGradient3904">
      <stop
         id="stop3906"
         style="stop-color:#bcd0e3;stop-opacity:1"
         offset="0" />
      <stop
         id="stop3908"
         style="stop-color:#97b5d4;stop-opacity:1"
         offset="0.70264906" />
      <stop
         id="stop5309"
         style="stop-color:#729bc5;stop-opacity:1"
         offset="0.85132456" />
      <stop
         id="stop3910"
         style="stop-color:#4575a9;stop-opacity:1"
         offset="1" />
    </linearGradient>
    <linearGradient
       id="linearGradient5423">
      <stop
         style="stop-color:#308ca5;stop-opacity:1;"
         offset="0"
         id="stop5425" />
      <stop
         id="stop5431"
         offset="0.21902494"
         style="stop-color:#296175;stop-opacity:1;" />
      <stop
         style="stop-color:#1a303c;stop-opacity:1;"
         offset="0.59302771"
         id="stop5433" />
      <stop
         style="stop-color:#15171f;stop-opacity:1;"
         offset="1"
         id="stop5427" />
    </linearGradient>
    <linearGradient
       id="linearGradient5862">
      <stop
         style="stop-color:#389eca;stop-opacity:1;"
         offset="0"
         id="stop5864" />
      <stop
         style="stop-color:#2b5e91;stop-opacity:1;"
         offset="1"
         id="stop5866" />
    </linearGradient>
    <linearGradient
       id="linearGradient3095">
      <stop
         style="stop-color:#389eca;stop-opacity:1;"
         offset="0"
         id="stop3097" />
      <stop
         style="stop-color:#2b5e91;stop-opacity:1;"
         offset="1"
         id="stop3099" />
    </linearGradient>
    <linearGradient
       id="linearGradient3102">
      <stop
         style="stop-color:#389eca;stop-opacity:1;"
         offset="0"
         id="stop3104" />
      <stop
         style="stop-color:#2b5e91;stop-opacity:1;"
         offset="1"
         id="stop3106" />
    </linearGradient>
    <linearGradient
       id="linearGradient3109">
      <stop
         style="stop-color:#389eca;stop-opacity:1;"
         offset="0"
         id="stop3111" />
      <stop
         style="stop-color:#2b5e91;stop-opacity:1;"
         offset="1"
         id="stop3113" />
    </linearGradient>
    <linearGradient
       id="linearGradient3116">
      <stop
         style="stop-color:#389eca;stop-opacity:1;"
         offset="0"
         id="stop3118" />
      <stop
         style="stop-color:#2b5e91;stop-opacity:1;"
         offset="1"
         id="stop3120-1" />
    </linearGradient>
    <linearGradient
       inkscape:collect="always"
       xlink:href="#linearGradient5862"
       id="linearGradient4169"
       gradientUnits="userSpaceOnUse"
       x1="-89.438469"
       y1="42.508736"
       x2="-89.438469"
       y2="196.6803" />
    <linearGradient
       id="linearGradient3123">
      <stop
         style="stop-color:#389eca;stop-opacity:1;"
         offset="0"
         id="stop3125" />
      <stop
         style="stop-color:#2b5e91;stop-opacity:1;"
         offset="1"
         id="stop3127-7" />
    </linearGradient>
  </defs>
  <metadata
     id="metadata2413">
    <rdf:RDF>
      <cc:Work
         rdf:about="">
        <dc:format>image/svg+xml</dc:format>
        <dc:type
           rdf:resource="http://purl.org/dc/dcmitype/StillImage" />
        <dc:title></dc:title>
      </cc:Work>
    </rdf:RDF>
  </metadata>
  <g
     id="layer2"
     style="display:none">
    <rect
       width="86"
       height="85"
       rx="6"
       ry="6"
       x="5"
       y="7"
       id="rect3745"
       style="opacity:0.9;fill:url(#ButtonShadow);fill-opacity:1;fill-rule:nonzero;stroke:none;filter:url(#filter3174)" />
  </g>
  <g
     id="layer3"
     style="fill:#730000;fill-opacity:1;" />
  <rect
     style="opacity:0.5;fill:#000000;stroke:#000000;stroke-width:7;stroke-linejoin:round;stroke-miterlimit:4;stroke-opacity:1;stroke-dasharray:none;fill-opacity:1;filter:url(#filter3967)"
     id="rect3046"
     width="84"
     height="84"
     x="6"
     y="6"
     rx="9.4030209"
     ry="9.1791401" />
  <rect
     style="opacity:0.80000000000000004;fill:url(#linearGradient3977);fill-opacity:1;stroke:none;stroke-width:6;stroke-linejoin:round;stroke-miterlimit:4;stroke-opacity:1;stroke-dasharray:none"
     id="rect3864"
     width="88"
     height="88"
     x="4"
     y="4"
     rx="9.4030209"
     ry="9.1791401" />
  <g
     transform="matrix(0.096,0,0,0.096,20.755937,13.809143)"
     id="g3013"
     style="opacity:0.5">
    <path
       inkscape:connector-curvature="0"
       id="path4"
       style="fill:#000000"
       d="m 158.375,1.65625 c -3.6193,0.1123192 -7.51715,1.4493266 -11.9375,4.9375 C 135.61054,2.4174496 125.11041,0.9665612 115.71875,9.46875 101.22489,7.5879922 96.508461,11.469494 92.9375,16 89.754953,15.934135 69.118652,12.72793 59.65625,26.84375 35.874602,24.030329 28.359472,40.831625 36.875,56.5 c -4.856911,7.518955 -9.889503,14.947226 1.46875,29.28125 -4.018006,7.983514 -1.527431,16.64403 7.9375,27.125 -2.497857,11.2226 2.412077,19.14086 11.21875,25.3125 -1.64709,15.35756 14.083505,24.28743 18.78125,27.46875 1.803677,8.94868 5.56291,17.3927 23.53125,22.0625 2.96323,13.3361 13.76206,15.63906 24.21875,18.4375 -34.561929,20.08954 -64.20067,46.52266 -64,111.375 l -5.0625,9.03125 C 15.337882,350.69604 -20.316547,428.16001 35.4375,491.125 c 3.641871,19.70838 9.749589,33.86396 15.1875,49.53125 8.133834,63.13058 61.21763,92.69161 75.21875,96.1875 20.51653,15.62812 42.36818,30.45672 71.9375,40.84375 27.87515,28.74946 58.07388,39.7064 88.4375,39.6875 0.44515,-2.8e-4 0.89853,0.005 1.34375,0 30.36363,0.0189 60.56235,-10.93804 88.4375,-39.6875 29.56932,-10.38703 51.42097,-25.21563 71.9375,-40.84375 14.00112,-3.49589 67.08492,-33.05692 75.21875,-96.1875 5.43791,-15.66729 11.54562,-29.82287 15.1875,-49.53125 55.75404,-62.96499 20.09961,-140.42896 -19.53125,-164.53125 L 513.75,317.5625 c 0.20067,-64.85234 -29.43807,-91.28546 -64,-111.375 10.45669,-2.79844 21.25552,-5.1014 24.21875,-18.4375 17.96834,-4.6698 21.72758,-13.11382 23.53125,-22.0625 4.69775,-3.18132 20.42834,-12.11119 18.78125,-27.46875 8.80668,-6.17164 13.71661,-14.0899 11.21875,-25.3125 9.46494,-10.48097 11.9555,-19.141487 7.9375,-27.125 C 546.79575,71.447226 541.76316,64.018955 536.90625,56.5 545.42178,40.831625 537.90665,24.030329 514.125,26.84375 504.6626,12.72793 484.0263,15.934135 480.84375,16 477.27279,11.469494 472.55636,7.587992 458.0625,9.46875 448.67084,0.96656132 438.17071,2.41745 427.34375,6.59375 414.48455,-3.5536631 405.97149,4.580454 396.25,7.65625 380.67615,2.568472 377.11698,9.5371578 369.46875,12.375 352.4935,8.7869238 347.33315,16.598532 339.1875,24.84375 l -9.46875,-0.1875 c -25.61054,15.093115 -38.33378,45.825501 -42.84375,61.625 -4.51206,-15.801979 -17.20647,-46.534542 -42.8125,-61.625 l -9.46875,0.1875 C 226.4481,16.598532 221.28775,8.7869235 204.3125,12.375 196.66427,9.5371583 193.1051,2.5684729 177.53125,7.65625 c -6.37973,-2.0184911 -12.24667,-6.2144276 -19.15625,-6 z" />
    <path
       inkscape:connector-curvature="0"
       id="path6"
       style="fill:#75a928"
       d="m 107.39184,68.055583 c 67.94767,35.031357 107.44689,63.368967 129.08717,87.504467 -11.08235,44.41759 -68.89638,46.44464 -90.03559,45.19858 4.32842,-2.01474 7.93988,-4.42778 9.22051,-8.13574 -5.30449,-3.76981 -24.11289,-0.39719 -37.24363,-7.77416 5.04407,-1.04499 7.40348,-2.06302 9.76289,-5.78542 -12.40571,-3.9567 -25.76862,-7.36642 -33.627746,-13.92116 4.241253,0.0524 8.201156,0.9488 13.740366,-2.89271 -11.111694,-5.98819 -22.969108,-10.73351 -32.18139,-19.88738 5.745213,-0.14063 11.939452,-0.0568 13.740371,-2.16953 -10.17044,-6.30068 -18.751242,-13.30787 -25.853592,-20.97215 8.039979,0.97052 11.435284,0.13478 13.378782,-1.26556 -7.687795,-7.87419 -17.417559,-14.52319 -22.056911,-24.22644 5.969606,2.057484 11.431249,2.84506 15.36752,-0.180795 -2.612365,-5.893453 -13.805413,-9.369618 -20.248967,-23.141676 6.284359,0.609377 12.949606,1.371108 14.282753,0 C 61.802068,58.517346 56.796919,51.835885 51.887978,44.913906 65.338021,44.714177 85.715734,44.966253 84.792549,43.82914 l -8.31654,-8.497335 c 13.137617,-3.537241 26.580651,0.568164 36.339661,3.615887 4.38186,-3.457681 -0.0776,-7.82998 -5.42383,-12.294015 11.16496,1.490646 21.25382,4.057389 30.37345,7.593362 4.87238,-4.399329 -3.16389,-8.798658 -7.05098,-13.197987 17.24936,3.272568 24.55716,7.87068 31.81981,12.47481 5.26935,-5.050799 0.30166,-9.343299 -3.2543,-13.740371 13.00566,4.817048 19.70478,11.035551 26.75756,17.175463 2.39119,-3.227053 6.07494,-5.592408 1.62715,-13.378781 9.23416,5.322725 16.18926,11.59506 21.33374,18.621817 5.71336,-3.637941 3.40387,-8.613023 3.43509,-13.197987 9.59665,7.806516 15.68687,16.11395 23.14168,24.226443 1.50169,-1.093437 2.81661,-4.80171 3.97747,-10.666867 22.89539,22.211815 55.24591,78.158241 8.31654,100.340861 C 207.95028,109.95728 160.25292,86.016909 107.39184,68.055583 z" />
    <path
       inkscape:connector-curvature="0"
       id="path8"
       style="fill:#75a928"
       d="M 467.92487,68.055583 C 399.9772,103.08694 360.47798,131.42455 338.8377,155.56005 c 11.08235,44.41759 68.89638,46.44464 90.03559,45.19858 -4.32842,-2.01474 -7.93988,-4.42778 -9.22051,-8.13574 5.30449,-3.76981 24.11289,-0.39719 37.24363,-7.77416 -5.04407,-1.04499 -7.40348,-2.06302 -9.76289,-5.78542 12.40571,-3.9567 25.76862,-7.36642 33.62775,-13.92116 -4.24126,0.0524 -8.20116,0.9488 -13.74037,-2.89271 11.11169,-5.98819 22.96911,-10.73351 32.18139,-19.88738 -5.74521,-0.14063 -11.93945,-0.0568 -13.74037,-2.16953 10.17044,-6.30068 18.75124,-13.30787 25.85359,-20.97215 -8.03998,0.97052 -11.43528,0.13478 -13.37878,-1.26556 7.68779,-7.87419 17.41756,-14.52319 22.05691,-24.22644 -5.96961,2.057484 -11.43125,2.84506 -15.36752,-0.180795 2.61237,-5.893453 13.80541,-9.369618 20.24897,-23.141676 -6.28436,0.609377 -12.94961,1.371108 -14.28276,0 2.92231,-11.888563 7.92746,-18.570024 12.8364,-25.492003 -13.45004,-0.199729 -33.82775,0.05235 -32.90457,-1.084766 l 8.31654,-8.497335 c -13.13762,-3.537241 -26.58065,0.568164 -36.33966,3.615887 -4.38186,-3.457681 0.0776,-7.82998 5.42383,-12.294015 -11.16496,1.490646 -21.25382,4.057389 -30.37345,7.593362 -4.87238,-4.399329 3.16389,-8.798658 7.05098,-13.197987 -17.24936,3.272568 -24.55716,7.87068 -31.81981,12.47481 -5.26935,-5.050799 -0.30166,-9.343299 3.2543,-13.740371 -13.00566,4.817048 -19.70478,11.035551 -26.75756,17.175463 -2.39119,-3.227053 -6.07494,-5.592408 -1.62715,-13.378781 -9.23416,5.322725 -16.18926,11.59506 -21.33374,18.621817 -5.71336,-3.637941 -3.40387,-8.613023 -3.43509,-13.197987 -9.59665,7.806516 -15.68687,16.11395 -23.14168,24.226443 -1.50169,-1.093437 -2.81661,-4.80171 -3.97747,-10.666867 -22.89539,22.211815 -55.24591,78.158241 -8.31654,100.340861 39.91877,-32.94716 87.61613,-56.887531 140.47721,-74.848857 z" />
    <path
       inkscape:connector-curvature="0"
       id="path10"
       style="fill:#bc1142"
       transform="matrix(1.131107,0,0,1.1280497,-43.139135,-68.310983)"
       d="m 365.2046,521.84937 a 71.956155,66.532319 0 1 1 -143.91231,0 71.956155,66.532319 0 1 1 143.91231,0 z" />
    <path
       inkscape:connector-curvature="0"
       id="path12"
       style="fill:#bc1142"
       transform="matrix(0.76741684,-1.1613112,2.171115,1.4224368,-560.88858,217.68859)"
       d="m 262.84091,276.64774 a 61.875,28.125 0 1 1 -123.75,0 61.875,28.125 0 1 1 123.75,0 z" />
    <path
       inkscape:connector-curvature="0"
       id="path14"
       style="fill:#bc1142"
       transform="matrix(-0.76741684,-1.1613112,-2.171115,1.4224368,1134.8288,213.68859)"
       d="m 262.84091,276.64774 a 61.875,28.125 0 1 1 -123.75,0 61.875,28.125 0 1 1 123.75,0 z" />
    <path
       inkscape:connector-curvature="0"
       id="path16"
       style="fill:#bc1142"
       d="M 72.910253,342.0878 C 109.32447,332.33088 85.201845,492.72431 55.576871,479.56357 22.990103,453.35089 12.493801,376.58814 72.910253,342.0878 z" />
    <path
       inkscape:connector-curvature="0"
       id="path18"
       style="fill:#bc1142"
       d="m 493.67828,340.0878 c -36.41422,-9.75692 -12.2916,150.63651 17.33338,137.47577 32.58677,-26.21268 43.08307,-102.97543 -17.33338,-137.47577 z" />
    <path
       inkscape:connector-curvature="0"
       id="path20"
       style="fill:#bc1142"
       d="m 369.97158,220.6534 c 62.83486,-10.61013 115.11594,26.72229 113.01138,94.85796 -2.06693,26.12112 -136.15872,-90.96907 -113.01138,-94.85796 z" />
    <path
       inkscape:connector-curvature="0"
       id="path22"
       style="fill:#bc1142"
       d="M 196.35975,218.6534 C 133.52489,208.04327 81.24381,245.37569 83.34837,313.51136 85.4153,339.63248 219.50709,222.54229 196.35975,218.6534 z" />
    <path
       inkscape:connector-curvature="0"
       id="path24"
       style="fill:#bc1142"
       d="m 286.61932,202.75568 c -37.50259,-0.97548 -73.49548,27.83418 -73.58158,44.54443 -0.10462,20.30426 29.6512,41.09266 73.83726,41.62035 45.12305,0.32321 73.91561,-16.64049 74.0611,-37.59409 0.16484,-23.73996 -41.03879,-48.93744 -74.31678,-48.57069 z" />
    <path
       inkscape:connector-curvature="0"
       id="path26"
       style="fill:#bc1142"
       d="m 288.90937,619.11675 c 32.69744,-1.42711 76.57083,10.53196 76.6568,26.39598 0.5427,15.4052 -39.78969,50.21055 -78.82634,49.53765 -40.42729,1.74391 -80.06908,-33.11559 -79.54951,-45.19859 -0.60506,-17.71593 49.226,-31.54796 81.71905,-30.73504 z" />
    <path
       inkscape:connector-curvature="0"
       id="path28"
       style="fill:#bc1142"
       d="m 168.13874,525.10369 c 23.2791,28.04573 33.89066,77.31899 14.46355,91.84353 -18.37917,11.08784 -63.01228,6.52162 -94.736237,-39.05157 -21.395052,-38.24168 -18.637584,-77.15663 -3.615887,-88.58924 22.464424,-13.68429 57.173424,4.79902 83.888574,35.79728 z" />
    <path
       inkscape:connector-curvature="0"
       id="path30"
       style="fill:#bc1142"
       d="m 405.0209,516.21177 c -25.18682,29.50165 -39.21227,83.30951 -20.83785,100.6428 17.56828,13.46361 64.7292,11.58162 99.56566,-36.75574 25.29599,-32.46471 16.82013,-86.68225 2.37077,-101.07511 -21.46408,-16.60213 -52.27691,4.64489 -81.09858,37.18805 z" />
  </g>
</svg>
