<?xml version="1.0" encoding="UTF-8" standalone="no"?>
<!-- Created with Inkscape (http://www.inkscape.org/) -->

<svg
   xmlns:dc="http://purl.org/dc/elements/1.1/"
   xmlns:cc="http://creativecommons.org/ns#"
   xmlns:rdf="http://www.w3.org/1999/02/22-rdf-syntax-ns#"
   xmlns:svg="http://www.w3.org/2000/svg"
   xmlns="http://www.w3.org/2000/svg"
   xmlns:xlink="http://www.w3.org/1999/xlink"
   xmlns:sodipodi="http://sodipodi.sourceforge.net/DTD/sodipodi-0.dtd"
   xmlns:inkscape="http://www.inkscape.org/namespaces/inkscape"
   version="1.0"
   width="96"
   height="96"
   id="svg2408"
   style="display:inline"
   inkscape:version="0.48.2 r9819"
   sodipodi:docname="WM_Admin.svg"
   inkscape:export-filename="/mnt/Web_eMMe/Web Developer/WM_framework/Immagini/WM_Fonts.png"
   inkscape:export-xdpi="30"
   inkscape:export-ydpi="30">
  <sodipodi:namedview
     pagecolor="#ffffff"
     bordercolor="#666666"
     borderopacity="1"
     objecttolerance="10"
     gridtolerance="10"
     guidetolerance="10"
     inkscape:pageopacity="0"
     inkscape:pageshadow="2"
     inkscape:window-width="1366"
     inkscape:window-height="744"
     id="namedview3169"
     showgrid="true"
     inkscape:zoom="5.7941349"
     inkscape:cx="48.287967"
     inkscape:cy="46.848526"
     inkscape:window-x="0"
     inkscape:window-y="24"
     inkscape:window-maximized="1"
     inkscape:current-layer="svg2408"
     showguides="true"
     inkscape:guide-bbox="true">
    <inkscape:grid
       type="xygrid"
       id="grid3023"
       empspacing="8"
       visible="true"
       enabled="true"
       snapvisiblegridlinesonly="true"
       spacingx="2px"
       spacingy="2px" />
  </sodipodi:namedview>
  <defs
     id="defs2410">
    <linearGradient
       id="linearGradient3971">
      <stop
         style="stop-color:#ffffff;stop-opacity:1"
         offset="0"
         id="stop3973" />
      <stop
         style="stop-color:#dedede;stop-opacity:0;"
         offset="1"
         id="stop3975" />
    </linearGradient>
    <linearGradient
       x1="45.447727"
       y1="92.539597"
       x2="45.447727"
       y2="7.0165396"
       id="ButtonShadow"
       gradientUnits="userSpaceOnUse"
       gradientTransform="scale(1.0058652,0.994169)">
      <stop
         id="stop3750"
         style="stop-color:#000000;stop-opacity:1"
         offset="0" />
      <stop
         id="stop3752"
         style="stop-color:#000000;stop-opacity:0.58823532"
         offset="1" />
    </linearGradient>
    <linearGradient
       id="linearGradient3700">
      <stop
         id="stop3702"
         style="stop-color:#e6e6e6;stop-opacity:1"
         offset="0" />
      <stop
         id="stop3704"
         style="stop-color:#f5f5f5;stop-opacity:1"
         offset="1" />
    </linearGradient>
    <linearGradient
       x1="48"
       y1="90"
       x2="48"
       y2="5.9877172"
       id="linearGradient3706"
       xlink:href="#linearGradient3700"
       gradientUnits="userSpaceOnUse" />
    <filter
       color-interpolation-filters="sRGB"
       id="filter3174">
      <feGaussianBlur
         id="feGaussianBlur3176"
         stdDeviation="1.71" />
    </filter>
    <linearGradient
       x1="45.447727"
       y1="92.539597"
       x2="45.447727"
       y2="7.0165396"
       id="ButtonShadow-0"
       gradientUnits="userSpaceOnUse"
       gradientTransform="matrix(1.0058652,0,0,0.994169,100,0)">
      <stop
         id="stop3750-8"
         style="stop-color:#000000;stop-opacity:1"
         offset="0" />
      <stop
         id="stop3752-5"
         style="stop-color:#000000;stop-opacity:0.58823532"
         offset="1" />
    </linearGradient>
    <linearGradient
       x1="32.251034"
       y1="6.1317081"
       x2="32.251034"
       y2="90.238609"
       id="linearGradient3780"
       xlink:href="#ButtonShadow-0"
       gradientUnits="userSpaceOnUse"
       gradientTransform="matrix(1.0238095,0,0,1.0119048,-1.1428571,-98.071429)" />
    <linearGradient
       x1="32.251034"
       y1="6.1317081"
       x2="32.251034"
       y2="90.238609"
       id="linearGradient3772"
       xlink:href="#ButtonShadow-0"
       gradientUnits="userSpaceOnUse"
       gradientTransform="matrix(1.0238095,0,0,1.0119048,-1.1428571,-98.071429)" />
    <linearGradient
       x1="32.251034"
       y1="6.1317081"
       x2="32.251034"
       y2="90.238609"
       id="linearGradient3725"
       xlink:href="#ButtonShadow-0"
       gradientUnits="userSpaceOnUse"
       gradientTransform="matrix(1.0238095,0,0,1.0119048,-1.1428571,-98.071429)" />
    <linearGradient
       x1="32.251034"
       y1="6.1317081"
       x2="32.251034"
       y2="90.238609"
       id="linearGradient3721"
       xlink:href="#ButtonShadow-0"
       gradientUnits="userSpaceOnUse"
       gradientTransform="translate(0,-97)" />
    <linearGradient
       x1="32.251034"
       y1="6.1317081"
       x2="32.251034"
       y2="90.238609"
       id="linearGradient3760"
       xlink:href="#ButtonShadow-0"
       gradientUnits="userSpaceOnUse"
       gradientTransform="matrix(1.0238095,0,0,1.0119048,-1.1428571,-98.071429)" />
    <linearGradient
       id="linearGradient3737-1">
      <stop
         id="stop3739-9"
         style="stop-color:#ffffff;stop-opacity:1"
         offset="0" />
      <stop
         id="stop3741-3"
         style="stop-color:#ffffff;stop-opacity:0"
         offset="1" />
    </linearGradient>
    <radialGradient
       cx="48"
       cy="90.171875"
       r="42"
       fx="48"
       fy="90.171875"
       id="radialGradient2886"
       xlink:href="#linearGradient3737-0"
       gradientUnits="userSpaceOnUse"
       gradientTransform="matrix(1.1573129,0,0,0.99590774,-7.551021,0.1971319)" />
    <linearGradient
       id="linearGradient3737-0">
      <stop
         id="stop3739-6"
         style="stop-color:#ffffff;stop-opacity:1"
         offset="0" />
      <stop
         id="stop3741-0"
         style="stop-color:#ffffff;stop-opacity:0"
         offset="1" />
    </linearGradient>
    <linearGradient
       x1="36.357143"
       y1="6"
       x2="36.357143"
       y2="63.893143"
       id="linearGradient3923"
       xlink:href="#linearGradient3737-1"
       gradientUnits="userSpaceOnUse" />
    <linearGradient
       id="linearGradient3737-9">
      <stop
         id="stop3739-2"
         style="stop-color:#ffffff;stop-opacity:1"
         offset="0" />
      <stop
         id="stop3741-1"
         style="stop-color:#ffffff;stop-opacity:0"
         offset="1" />
    </linearGradient>
    <clipPath
       id="clipPath3613">
      <rect
         width="84"
         height="84"
         rx="6"
         ry="6"
         x="6"
         y="6"
         id="rect3615"
         style="fill:#ffffff;fill-opacity:1;fill-rule:nonzero;stroke:none" />
    </clipPath>
    <filter
       x="-0.192"
       y="-0.192"
       width="1.3839999"
       height="1.3839999"
       color-interpolation-filters="sRGB"
       id="filter3794">
      <feGaussianBlur
         id="feGaussianBlur3796"
         stdDeviation="5.28" />
    </filter>
    <linearGradient
       x1="48"
       y1="20.220806"
       x2="48"
       y2="138.66119"
       id="linearGradient2890"
       xlink:href="#linearGradient3737-9"
       gradientUnits="userSpaceOnUse" />
    <filter
       inkscape:collect="always"
       id="filter3967">
      <feGaussianBlur
         inkscape:collect="always"
         stdDeviation="0.84"
         id="feGaussianBlur3969" />
    </filter>
    <linearGradient
       inkscape:collect="always"
       xlink:href="#linearGradient3971"
       id="linearGradient3977"
       x1="16"
       y1="16"
       x2="92"
       y2="92"
       gradientUnits="userSpaceOnUse" />
    <linearGradient
       x1="20.758585"
       y1="1"
       x2="20.758585"
       y2="45.017357"
       id="linearGradient3141"
       xlink:href="#linearGradient3309"
       gradientUnits="userSpaceOnUse"
       gradientTransform="matrix(1.2790652,0,0,1.2790652,17.302433,18.5815)" />
    <linearGradient
       x1="63.9995"
       y1="3.1001"
       x2="63.9995"
       y2="122.8994"
       id="linearGradient3309"
       gradientUnits="userSpaceOnUse">
      <stop
         id="stop3311"
         style="stop-color:#f0f0f0;stop-opacity:1"
         offset="0" />
      <stop
         id="stop3313"
         style="stop-color:#aaaaaa;stop-opacity:1"
         offset="1" />
    </linearGradient>
    <clipPath
       id="clipPath4403">
      <path
         d="m 30.916245,135.971 c -0.937266,0.54113 -1.228304,1.74752 -0.677924,2.7008 l 1.9375,3.35585 c -1.418086,1.4141 -2.622273,3.01198 -3.595451,4.71 l -3.783634,-0.99095 c -0.531629,-0.14245 -1.037926,-0.11751 -1.476221,0.13061 -0.438159,0.24835 -0.796545,0.66758 -0.936598,1.19027 l -1.978825,7.38507 c -0.280102,1.04538 0.365953,2.06538 1.429126,2.35032 l 3.772195,1.03363 c -0.0062,1.95711 0.237711,3.94301 0.758755,5.87671 l -3.355849,1.9375 c -0.95328,0.55037 -1.304431,1.74066 -0.763301,2.67792 l 3.8125,6.60344 c 0.54113,0.93727 1.747521,1.2283 2.700801,0.67793 l 3.355849,-1.9375 c 1.414106,1.41808 3.011983,2.62227 4.709995,3.59545 l -0.990945,3.78363 c -0.284894,1.06325 0.275431,2.13275 1.320874,2.41282 l 7.385075,1.97883 c 1.045371,0.28011 2.065425,-0.36588 2.35032,-1.42913 l 1.033633,-3.77219 c 1.957118,0.006 3.943015,-0.23771 5.876701,-0.75876 l 1.9375,3.35585 c 0.550375,0.95328 1.740658,1.30443 2.677924,0.7633 l 6.603444,-3.8125 c 0.937258,-0.54113 1.228299,-1.74752 0.677924,-2.7008 l -1.9375,-3.35585 c 1.418087,-1.4141 2.622272,-3.01197 3.595452,-4.70999 l 3.783633,0.99094 c 1.063244,0.2849 2.132709,-0.27549 2.41282,-1.32087 l 1.978825,-7.38508 c 0.280102,-1.04537 -0.365953,-2.06538 -1.429127,-2.35032 l -3.772195,-1.03363 c 0.0062,-1.95711 -0.237701,-3.94301 -0.758754,-5.8767 l 3.355848,-1.9375 c 0.953272,-0.55037 1.304431,-1.74066 0.763301,-2.67793 l -3.8125,-6.60344 c -0.54113,-0.93726 -1.747529,-1.2283 -2.700801,-0.67792 l -3.355849,1.9375 c -1.414093,-1.4181 -3.011984,-2.62228 -4.709995,-3.59546 l 0.990945,-3.78363 c 0.284894,-1.06324 -0.275422,-2.13275 -1.320874,-2.41282 l -7.385074,-1.97882 c -1.045381,-0.28011 -2.065426,0.36588 -2.35032,1.42912 l -1.033633,3.7722 c -1.95712,-0.006 -3.943015,0.2377 -5.876702,0.75875 l -1.9375,-3.35585 c -0.55038,-0.95328 -1.740666,-1.30442 -2.677924,-0.7633 l -6.603444,3.8125 z m 10.051722,9.7851 c 6.696096,-3.866 15.258361,-1.57175 19.124356,5.12435 3.865995,6.6961 1.57174,15.25836 -5.124356,19.12436 -6.696096,3.86599 -15.258361,1.57174 -19.124356,-5.12436 -3.865995,-6.6961 -1.57174,-15.25836 5.124356,-19.12435 z"
         inkscape:connector-curvature="0"
         id="path4405"
         style="fill:url(#linearGradient4407);fill-opacity:1;fill-rule:nonzero;stroke:none;stroke-width:1;marker:none;visibility:visible;display:block;overflow:visible;enable-background:accumulate" />
    </clipPath>
    <linearGradient
       x1="48.233639"
       y1="48.047016"
       x2="126.13924"
       y2="66.232674"
       id="linearGradient4213"
       xlink:href="#linearGradient4071-3"
       gradientUnits="userSpaceOnUse" />
    <linearGradient
       id="linearGradient4071-3">
      <stop
         id="stop4073-8"
         style="stop-color:#000000;stop-opacity:1"
         offset="0" />
      <stop
         id="stop4075-4"
         style="stop-color:#000000;stop-opacity:0"
         offset="1" />
    </linearGradient>
    <linearGradient
       x1="48.055065"
       y1="48.031517"
       x2="126.67282"
       y2="62.838562"
       id="linearGradient4215"
       xlink:href="#linearGradient4047-2"
       gradientUnits="userSpaceOnUse" />
    <linearGradient
       id="linearGradient4047-2">
      <stop
         id="stop4049-0"
         style="stop-color:#000000;stop-opacity:1"
         offset="0" />
      <stop
         id="stop4051-5"
         style="stop-color:#000000;stop-opacity:0"
         offset="1" />
    </linearGradient>
    <linearGradient
       x1="47.997307"
       y1="48.028725"
       x2="127.05216"
       y2="60.289631"
       id="linearGradient4217"
       xlink:href="#linearGradient4047-2"
       gradientUnits="userSpaceOnUse" />
    <linearGradient
       id="linearGradient3118">
      <stop
         id="stop3120"
         style="stop-color:#000000;stop-opacity:1"
         offset="0" />
      <stop
         id="stop3122"
         style="stop-color:#000000;stop-opacity:0"
         offset="1" />
    </linearGradient>
    <linearGradient
       x1="47.99826"
       y1="48.028797"
       x2="127.41583"
       y2="57.664623"
       id="linearGradient4219"
       xlink:href="#linearGradient4047-2"
       gradientUnits="userSpaceOnUse" />
    <linearGradient
       id="linearGradient3125">
      <stop
         id="stop3127"
         style="stop-color:#000000;stop-opacity:1"
         offset="0" />
      <stop
         id="stop3129"
         style="stop-color:#000000;stop-opacity:0"
         offset="1" />
    </linearGradient>
    <linearGradient
       x1="48.233643"
       y1="48.04702"
       x2="126.13924"
       y2="66.232674"
       id="linearGradient4221"
       xlink:href="#linearGradient4115-2"
       gradientUnits="userSpaceOnUse" />
    <linearGradient
       id="linearGradient4115-2">
      <stop
         id="stop4117-3"
         style="stop-color:#ffffff;stop-opacity:1"
         offset="0" />
      <stop
         id="stop4119-6"
         style="stop-color:#ffffff;stop-opacity:0"
         offset="1" />
    </linearGradient>
    <linearGradient
       x1="48.055069"
       y1="48.031521"
       x2="126.67282"
       y2="62.838566"
       id="linearGradient4223"
       xlink:href="#linearGradient4115-2"
       gradientUnits="userSpaceOnUse" />
    <linearGradient
       id="linearGradient3136">
      <stop
         id="stop3138"
         style="stop-color:#ffffff;stop-opacity:1"
         offset="0" />
      <stop
         id="stop3140"
         style="stop-color:#ffffff;stop-opacity:0"
         offset="1" />
    </linearGradient>
    <linearGradient
       x1="47.997311"
       y1="48.028728"
       x2="127.05216"
       y2="60.289635"
       id="linearGradient4225"
       xlink:href="#linearGradient4115-2"
       gradientUnits="userSpaceOnUse" />
    <linearGradient
       id="linearGradient3143">
      <stop
         id="stop3145"
         style="stop-color:#ffffff;stop-opacity:1"
         offset="0" />
      <stop
         id="stop3147"
         style="stop-color:#ffffff;stop-opacity:0"
         offset="1" />
    </linearGradient>
    <linearGradient
       x1="47.998264"
       y1="48.028801"
       x2="127.41583"
       y2="57.664627"
       id="linearGradient4227"
       xlink:href="#linearGradient4115-2"
       gradientUnits="userSpaceOnUse" />
    <linearGradient
       id="linearGradient3150">
      <stop
         id="stop3152"
         style="stop-color:#ffffff;stop-opacity:1"
         offset="0" />
      <stop
         id="stop3154"
         style="stop-color:#ffffff;stop-opacity:0"
         offset="1" />
    </linearGradient>
    <linearGradient
       x1="48.233639"
       y1="48.047016"
       x2="126.13924"
       y2="66.232674"
       id="linearGradient4229"
       xlink:href="#linearGradient4071-3"
       gradientUnits="userSpaceOnUse" />
    <linearGradient
       id="linearGradient3157">
      <stop
         id="stop3159"
         style="stop-color:#000000;stop-opacity:1"
         offset="0" />
      <stop
         id="stop3161"
         style="stop-color:#000000;stop-opacity:0"
         offset="1" />
    </linearGradient>
    <linearGradient
       x1="48.055065"
       y1="48.031517"
       x2="126.67282"
       y2="62.838562"
       id="linearGradient4231"
       xlink:href="#linearGradient4047-2"
       gradientUnits="userSpaceOnUse" />
    <linearGradient
       id="linearGradient3164">
      <stop
         id="stop3166"
         style="stop-color:#000000;stop-opacity:1"
         offset="0" />
      <stop
         id="stop3168"
         style="stop-color:#000000;stop-opacity:0"
         offset="1" />
    </linearGradient>
    <linearGradient
       x1="47.997307"
       y1="48.028725"
       x2="127.05216"
       y2="60.289631"
       id="linearGradient4233"
       xlink:href="#linearGradient4047-2"
       gradientUnits="userSpaceOnUse" />
    <linearGradient
       id="linearGradient3171">
      <stop
         id="stop3173"
         style="stop-color:#000000;stop-opacity:1"
         offset="0" />
      <stop
         id="stop3175"
         style="stop-color:#000000;stop-opacity:0"
         offset="1" />
    </linearGradient>
    <linearGradient
       x1="47.99826"
       y1="48.028797"
       x2="127.41583"
       y2="57.664623"
       id="linearGradient4235"
       xlink:href="#linearGradient4047-2"
       gradientUnits="userSpaceOnUse" />
    <linearGradient
       id="linearGradient3178">
      <stop
         id="stop3180"
         style="stop-color:#000000;stop-opacity:1"
         offset="0" />
      <stop
         id="stop3182"
         style="stop-color:#000000;stop-opacity:0"
         offset="1" />
    </linearGradient>
    <linearGradient
       x1="48.233639"
       y1="48.047016"
       x2="126.13924"
       y2="66.232674"
       id="linearGradient4237"
       xlink:href="#linearGradient4071-3"
       gradientUnits="userSpaceOnUse" />
    <linearGradient
       id="linearGradient3185">
      <stop
         id="stop3187"
         style="stop-color:#000000;stop-opacity:1"
         offset="0" />
      <stop
         id="stop3189"
         style="stop-color:#000000;stop-opacity:0"
         offset="1" />
    </linearGradient>
    <linearGradient
       x1="48.055065"
       y1="48.031517"
       x2="126.67282"
       y2="62.838562"
       id="linearGradient4239"
       xlink:href="#linearGradient4047-2"
       gradientUnits="userSpaceOnUse" />
    <linearGradient
       id="linearGradient3192">
      <stop
         id="stop3194"
         style="stop-color:#000000;stop-opacity:1"
         offset="0" />
      <stop
         id="stop3196"
         style="stop-color:#000000;stop-opacity:0"
         offset="1" />
    </linearGradient>
    <linearGradient
       x1="47.997307"
       y1="48.028725"
       x2="127.05216"
       y2="60.289631"
       id="linearGradient4241"
       xlink:href="#linearGradient4047-2"
       gradientUnits="userSpaceOnUse" />
    <linearGradient
       id="linearGradient3199">
      <stop
         id="stop3201"
         style="stop-color:#000000;stop-opacity:1"
         offset="0" />
      <stop
         id="stop3203"
         style="stop-color:#000000;stop-opacity:0"
         offset="1" />
    </linearGradient>
    <linearGradient
       x1="47.99826"
       y1="48.028797"
       x2="127.41583"
       y2="57.664623"
       id="linearGradient4243"
       xlink:href="#linearGradient4047-2"
       gradientUnits="userSpaceOnUse" />
    <linearGradient
       id="linearGradient3206">
      <stop
         id="stop3208"
         style="stop-color:#000000;stop-opacity:1"
         offset="0" />
      <stop
         id="stop3210"
         style="stop-color:#000000;stop-opacity:0"
         offset="1" />
    </linearGradient>
    <linearGradient
       x1="48.233643"
       y1="48.04702"
       x2="126.13924"
       y2="66.232674"
       id="linearGradient4245"
       xlink:href="#linearGradient4115-2"
       gradientUnits="userSpaceOnUse" />
    <linearGradient
       id="linearGradient3213">
      <stop
         id="stop3215"
         style="stop-color:#ffffff;stop-opacity:1"
         offset="0" />
      <stop
         id="stop3217"
         style="stop-color:#ffffff;stop-opacity:0"
         offset="1" />
    </linearGradient>
    <linearGradient
       x1="48.055069"
       y1="48.031521"
       x2="126.67282"
       y2="62.838566"
       id="linearGradient4247"
       xlink:href="#linearGradient4115-2"
       gradientUnits="userSpaceOnUse" />
    <linearGradient
       id="linearGradient3220">
      <stop
         id="stop3222"
         style="stop-color:#ffffff;stop-opacity:1"
         offset="0" />
      <stop
         id="stop3224"
         style="stop-color:#ffffff;stop-opacity:0"
         offset="1" />
    </linearGradient>
    <linearGradient
       x1="47.997311"
       y1="48.028728"
       x2="127.05216"
       y2="60.289635"
       id="linearGradient4249"
       xlink:href="#linearGradient4115-2"
       gradientUnits="userSpaceOnUse" />
    <linearGradient
       id="linearGradient3227">
      <stop
         id="stop3229"
         style="stop-color:#ffffff;stop-opacity:1"
         offset="0" />
      <stop
         id="stop3231"
         style="stop-color:#ffffff;stop-opacity:0"
         offset="1" />
    </linearGradient>
    <linearGradient
       x1="47.998264"
       y1="48.028801"
       x2="127.41583"
       y2="57.664627"
       id="linearGradient4251"
       xlink:href="#linearGradient4115-2"
       gradientUnits="userSpaceOnUse" />
    <linearGradient
       id="linearGradient3234">
      <stop
         id="stop3236"
         style="stop-color:#ffffff;stop-opacity:1"
         offset="0" />
      <stop
         id="stop3238"
         style="stop-color:#ffffff;stop-opacity:0"
         offset="1" />
    </linearGradient>
    <linearGradient
       x1="48"
       y1="20.220806"
       x2="48"
       y2="138.66119"
       id="linearGradient3613"
       xlink:href="#linearGradient3737"
       gradientUnits="userSpaceOnUse" />
    <linearGradient
       id="linearGradient3737">
      <stop
         id="stop3739"
         style="stop-color:#ffffff;stop-opacity:1"
         offset="0" />
      <stop
         id="stop3741"
         style="stop-color:#ffffff;stop-opacity:0"
         offset="1" />
    </linearGradient>
    <clipPath
       id="clipPath3613-5">
      <rect
         width="84"
         height="84"
         rx="6"
         ry="6"
         x="6"
         y="6"
         id="rect3615-4"
         style="fill:#ffffff;fill-opacity:1;fill-rule:nonzero;stroke:none" />
    </clipPath>
    <filter
       x="-0.192"
       y="-0.192"
       width="1.3839999"
       height="1.3839999"
       color-interpolation-filters="sRGB"
       id="filter3794-8">
      <feGaussianBlur
         id="feGaussianBlur3796-1"
         stdDeviation="5.28" />
    </filter>
    <linearGradient
       y2="138.66119"
       x2="48"
       y1="20.220806"
       x1="48"
       gradientUnits="userSpaceOnUse"
       id="linearGradient3062"
       xlink:href="#linearGradient3737"
       inkscape:collect="always" />
    <linearGradient
       x1="56"
       y1="16"
       x2="56"
       y2="80"
       id="linearGradient3736"
       xlink:href="#StandardGradient-3"
       gradientUnits="userSpaceOnUse"
       gradientTransform="matrix(0.94249199,0,0,0.94249199,-97.239616,0.875402)" />
    <linearGradient
       x1="11.998966"
       y1="0.92195445"
       x2="11.998966"
       y2="19.387045"
       id="StandardGradient-3"
       gradientUnits="userSpaceOnUse"
       gradientTransform="scale(0.9219544,1.0846523)">
      <stop
         id="stop3283-5"
         style="stop-color:#000000;stop-opacity:0.86274511"
         offset="0" />
      <stop
         id="stop2651-2"
         style="stop-color:#000000;stop-opacity:0.47058824"
         offset="1" />
    </linearGradient>
    <linearGradient
       x1="49"
       y1="20"
       x2="49"
       y2="76"
       id="linearGradient3829"
       xlink:href="#StandardGradient"
       gradientUnits="userSpaceOnUse" />
    <linearGradient
       x1="11.998966"
       y1="0.92195445"
       x2="11.998966"
       y2="19.387045"
       id="StandardGradient"
       gradientUnits="userSpaceOnUse"
       gradientTransform="scale(0.9219544,1.0846523)">
      <stop
         id="stop3283"
         style="stop-color:#000000;stop-opacity:0.86274511"
         offset="0" />
      <stop
         id="stop2651"
         style="stop-color:#000000;stop-opacity:0.47058824"
         offset="1" />
    </linearGradient>
    <radialGradient
       cx="372.90503"
       cy="376.39664"
       r="364.52515"
       fx="372.90503"
       fy="376.39664"
       id="radialGradient3046"
       xlink:href="#linearGradient3870"
       gradientUnits="userSpaceOnUse"
       gradientTransform="matrix(1,0,0,0.98659002,0,5.0474716)" />
    <linearGradient
       id="linearGradient3870">
      <stop
         id="stop3872"
         style="stop-color:#e0e9f2;stop-opacity:1"
         offset="0" />
      <stop
         id="stop3902"
         style="stop-color:#c7d7e8;stop-opacity:1"
         offset="0.828125" />
      <stop
         id="stop5311"
         style="stop-color:#b2c8df;stop-opacity:1"
         offset="0.9140625" />
      <stop
         id="stop3874"
         style="stop-color:#7ea3ca;stop-opacity:1"
         offset="1" />
    </linearGradient>
    <radialGradient
       cx="25.102606"
       cy="22.634785"
       r="19.18985"
       fx="25.102606"
       fy="22.634785"
       id="radialGradient2720"
       xlink:href="#linearGradient3904"
       gradientUnits="userSpaceOnUse"
       gradientTransform="matrix(1.2425636,-1.228748e-8,1.1872434e-8,1.2005923,16.808412,19.21595)" />
    <linearGradient
       id="linearGradient3904">
      <stop
         id="stop3906"
         style="stop-color:#bcd0e3;stop-opacity:1"
         offset="0" />
      <stop
         id="stop3908"
         style="stop-color:#97b5d4;stop-opacity:1"
         offset="0.70264906" />
      <stop
         id="stop5309"
         style="stop-color:#729bc5;stop-opacity:1"
         offset="0.85132456" />
      <stop
         id="stop3910"
         style="stop-color:#4575a9;stop-opacity:1"
         offset="1" />
    </linearGradient>
  </defs>
  <metadata
     id="metadata2413">
    <rdf:RDF>
      <cc:Work
         rdf:about="">
        <dc:format>image/svg+xml</dc:format>
        <dc:type
           rdf:resource="http://purl.org/dc/dcmitype/StillImage" />
        <dc:title></dc:title>
      </cc:Work>
    </rdf:RDF>
  </metadata>
  <g
     id="layer2"
     style="display:none">
    <rect
       width="86"
       height="85"
       rx="6"
       ry="6"
       x="5"
       y="7"
       id="rect3745"
       style="opacity:0.9;fill:url(#ButtonShadow);fill-opacity:1;fill-rule:nonzero;stroke:none;filter:url(#filter3174)" />
  </g>
  <g
     id="layer3"
     style="fill:#730000;fill-opacity:1;" />
  <rect
     style="opacity:0.5;fill:#000000;stroke:#000000;stroke-width:7;stroke-linejoin:round;stroke-miterlimit:4;stroke-opacity:1;stroke-dasharray:none;fill-opacity:1;filter:url(#filter3967)"
     id="rect3046"
     width="84"
     height="84"
     x="6"
     y="6"
     rx="9.4030209"
     ry="9.1791401" />
  <rect
     style="opacity:0.80000000000000004;fill:url(#linearGradient3977);fill-opacity:1;stroke:none;stroke-width:6;stroke-linejoin:round;stroke-miterlimit:4;stroke-opacity:1;stroke-dasharray:none"
     id="rect3864"
     width="88"
     height="88"
     x="4"
     y="4"
     rx="9.4030209"
     ry="9.1791401" />
  <g
     transform="translate(1.168437,0.1307458)"
     id="layer3-0"
     style="display:inline;opacity:0.5">
    <path
       inkscape:connector-curvature="0"
       d="m 372.90625,-26.25 c -224.30731,0 -407.53125,180.4399 -407.53125,402.65625 0,222.21654 183.22808,402.625 407.53125,402.625 224.30317,0 407.53125,-180.40846 407.53125,-402.625 C 780.4375,154.1899 597.21356,-26.25 372.90625,-26.25 z"
       transform="matrix(0.06583908,0,0,0.06673034,23.448276,23.884234)"
       id="path3713"
       style="opacity:0.05000000000000000;fill:#608ebe;fill-opacity:1;fill-rule:evenodd;stroke:none;display:inline" />
    <path
       inkscape:connector-curvature="0"
       d="m 372.90625,-12.28125 c -216.82169,0 -393.5625,174.14903 -393.5625,388.6875 0,214.53854 176.7437,388.65625 393.5625,388.65625 216.8188,0 393.5625,-174.11771 393.5625,-388.65625 0,-214.53847 -176.74081,-388.6875 -393.5625,-388.6875 z"
       transform="matrix(0.06583908,0,0,0.06673034,23.448276,23.884234)"
       id="path3705"
       style="opacity:0.10000000000000001;fill:#608ebe;fill-opacity:1;fill-rule:evenodd;stroke:none;display:inline" />
    <path
       inkscape:connector-curvature="0"
       d="m 372.90625,1.59375 c -209.39778,0 -379.6875,167.8941 -379.6875,374.8125 0,206.9184 170.29129,374.78125 379.6875,374.78125 209.39621,0 379.6875,-167.86285 379.6875,-374.78125 0,-206.9184 -170.28972,-374.8125 -379.6875,-374.8125 z"
       transform="matrix(0.06583908,0,0,0.06673034,23.448276,23.884234)"
       id="path3701"
       style="opacity:0.14999999999999999;fill:#608ebe;fill-opacity:1;fill-rule:evenodd;stroke:none;display:inline" />
    <path
       inkscape:connector-curvature="0"
       d="m 737.43018,376.39664 a 364.52515,359.63687 0 1 1 -729.0502972,0 364.52515,359.63687 0 1 1 729.0502972,0 z"
       transform="matrix(0.06583908,0,0,0.06673034,23.448276,23.884234)"
       id="path3695"
       style="opacity:0.29999999999999999;fill:#608ebe;fill-opacity:1;fill-rule:evenodd;stroke:none;display:inline" />
    <path
       inkscape:connector-curvature="0"
       d="m 737.43018,376.39664 a 364.52515,359.63687 0 1 1 -729.0502972,0 364.52515,359.63687 0 1 1 729.0502972,0 z"
       transform="matrix(0.06583908,0,0,0.06673034,23.448276,22.884234)"
       id="path5993"
       style="fill:url(#radialGradient3046);fill-opacity:1;fill-rule:evenodd;stroke:none;display:inline" />
    <path
       d="m 47.842106,24.572379 -2.72369,0.315789 -3.35526,0.927632 -0.63158,0.611842 2.09211,1.440789 0,0.828948 -0.82895,0.828947 1.08553,2.151315 0.73025,-0.394736 0.9079,-1.460526 c 1.40312,-0.43463 2.67293,-0.921454 4.00658,-1.539474 l 1.08553,-2.782895 -2.36842,-0.927631 z m -6.375,0.335526 c -0.59999,0.169658 -1.19638,0.358175 -1.77632,0.572368 l -0.0198,0.01974 c -0.0115,0.0042 -0.028,-0.0043 -0.0395,0 -0.80056,0.298068 -1.57134,0.647825 -2.32895,1.026316 l 1.18421,0.217106 0.45395,-0.414474 0.90789,-0.197369 c 0.62223,-0.303188 1.25428,-0.516327 1.91448,-0.730263 l -0.29606,-0.493421 z m -5.42764,2.348684 -0.17763,0.414474 0.0789,1.026316 -0.71052,0.611841 -0.45396,1.144737 0.9079,0 0.45394,-1.026316 c 0.3917,-0.277526 0.76554,-0.561809 1.16448,-0.828947 l 0.90789,0.31579 c 0.60523,0.411971 1.21007,0.812338 1.81579,1.223684 l 0.92764,-0.828948 -1.00658,-0.394736 -0.45395,-0.927632 -1.73684,-0.217105 -0.079,-0.513158 -0.82895,0.197369 -0.35526,0.730262 -0.45395,-0.927631 z m 23.26974,0.828948 -1.73684,0.414473 -1.08553,0.710526 0,0.611843 -1.7171,1.144736 0.35526,1.638158 1.00658,-0.710526 0.63158,0.710526 0.73026,0.414474 0.45395,-1.223685 -0.27632,-0.730262 0.27632,-0.513159 0.98684,-0.927631 0.45395,0 -0.45395,1.026316 0,0.927631 c 0.41732,-0.113789 0.85584,-0.144166 1.2829,-0.197368 l -1.18421,0.809211 -0.0987,0.532894 -1.36184,1.125 -1.36184,-0.31579 0,-0.80921 -0.63158,0.394737 0.27631,0.730263 -1.00658,0 -0.53289,0.927632 -0.69079,0.769737 -1.22368,0.256579 0.73026,0.730262 0.17763,0.710527 -0.90789,0 -1.18421,0.631579 0,1.835526 0.55263,0 0.49342,0.572369 1.14474,-0.572369 0.45394,-1.125 0.80921,-0.513158 0.17763,-0.414474 1.36185,-0.315789 0.73026,0.828947 0.80921,0.414474 -0.45394,0.927631 0.73026,-0.197368 0.375,-0.927632 -0.9079,-1.046052 0.35526,0 0.9079,0.730263 0.17763,1.026316 0.82895,0.927631 0.17764,-1.342105 0.45394,-0.197368 c 0.44905,0.467052 0.80601,1.013835 1.18421,1.539473 l 1.36184,0.09868 0.80921,0.513157 -0.35526,0.513158 -0.82895,0.730263 -1.16447,0 -1.55921,-0.513157 -0.80921,0.09868 -0.59211,0.671053 -1.67763,-1.697368 -1.18421,-0.315789 -1.71711,0.217105 -1.5592,0.414473 c -0.86637,0.984051 -1.70631,1.958283 -2.52632,2.980264 l -1.00658,2.36842 0.45395,0.513158 -0.80921,1.243421 0.90789,2.151316 c 0.77228,0.875268 1.53806,1.749107 2.30921,2.624999 l 1.125,-0.967104 0.51316,0.572368 1.22368,-0.789474 0.41448,0.473684 1.22368,0 0.69079,0.789474 -0.43421,1.421053 0.86842,0.986841 -0.0395,1.697368 0.63159,1.223687 -0.45396,1.046049 c -0.0452,0.757852 -0.0789,1.492031 -0.0789,2.25 0.37221,1.026868 0.73406,2.064437 1.08553,3.098683 l 0.25658,1.63816 0,0.828948 0.65131,0 0.98684,-0.61184 1.18421,0 1.77632,-2.013157 -0.23684,-0.671059 1.18421,-1.026313 -0.86842,-0.986844 1.04605,-0.868418 1.00658,-0.61184 0.45395,-0.513163 -0.27632,-1.144732 c 0,-0.960764 0,-1.920689 0,-2.881581 l 0.82895,-1.756579 0.98684,-1.124999 1.08553,-2.684211 0,-0.710526 c -0.53854,0.06796 -1.05214,0.119695 -1.57895,0.157895 l -0.0395,0.03947 -0.0395,-0.03947 c -0.31889,0.02167 -0.63921,0.03947 -0.96711,0.03947 -0.57836,-1.217639 -1.0201,-2.436681 -1.46052,-3.710525 l -0.76974,-0.868422 -0.39474,-1.499999 0.25658,-0.296053 1.04605,1.18421 1.22369,2.625 0.73026,0.809211 -0.35526,0.927631 0.69079,0.789474 c 0.026,-0.0018 0.053,0.0019 0.0789,0 l 1.08553,-1.085527 1.5,-1.026315 0.82895,-0.927632 0,-1.046052 c -0.1818,-0.343495 -0.36959,-0.682816 -0.55264,-1.026313 l -0.73026,0.828947 -0.55263,-0.611842 -0.80921,-0.631579 0,-1.322368 0.94737,1.065789 1.04605,-0.138158 c 0.47579,0.432751 0.94453,0.829657 1.36185,1.322368 l 0.67105,-0.75 c -0.96025,-5.882469 -4.07133,-11.041905 -8.48688,-14.664472 l -0.17763,0.276315 -0.9079,1.026316 -1.16447,-1.223684 1.16447,0 0.49343,-0.552632 c -0.0407,-0.03133 -0.0775,-0.06761 -0.11842,-0.09868 l -1.99343,-0.375 -1.18421,-0.414473 z m -24.82894,0.07895 c -0.32114,0.219258 -0.61795,0.456605 -0.92764,0.690789 l -0.13816,0.355263 c 0,0 -0.24891,0.04168 -0.4342,0.07895 -5.13854,4.131895 -8.54539,10.345335 -8.9408,17.348683 0.24673,0.423652 0.55264,0.907895 0.55264,0.907895 l 1.91447,1.125 1.89473,0.532895 0.82895,1.026315 1.26316,0.927632 0.73026,-0.118421 0.55263,0.256579 0,0.157894 -0.73026,1.953948 -0.55263,0.828947 0.17763,0.414474 -0.45395,1.539473 1.63816,2.999997 1.63816,1.440794 0.73026,1.026314 -0.0987,2.171052 0.55263,1.223686 -0.55263,2.368419 c 0,0 -0.013,0.01748 0.0197,0.157895 0.7634,0.541268 1.56244,1.049311 2.38816,1.5 0.0129,0.0071 0.0265,0.01268 0.0395,0.01975 0.0355,0.01668 0.0849,0.044 0.11842,0.0592 0.29272,0.132874 0.50749,0.211243 0.55263,0.177631 0.17992,-0.136948 0.33553,-0.256578 0.33553,-0.256578 l -0.17763,-0.513157 0.73026,-0.730265 0.27631,-0.710523 1.16448,-0.414474 0.90789,-2.269742 -0.25658,-0.61184 0.63158,-0.92763 1.36185,-0.315791 0.73026,-1.657896 -0.17764,-2.052627 1.08554,-1.539477 0.17763,-1.539472 c -1.49109,-0.740826 -2.98057,-1.507007 -4.46053,-2.269737 l -0.71053,-1.44079 -1.36184,-0.315789 -0.73027,-1.953947 -1.81578,0.197368 -1.53948,-1.125 -1.63816,1.44079 0,0.217105 c -0.49477,-0.143081 -1.09891,-0.162817 -1.53947,-0.434211 l -0.375,-1.026315 0,-1.125 -1.08553,0.09868 c 0.091,-0.721294 0.18473,-1.430146 0.27632,-2.151316 l -0.65131,0 -0.63159,0.809211 -0.63157,0.315789 -0.9079,-0.513158 -0.0987,-1.144737 0.19738,-1.223684 1.36184,-1.026316 1.08552,0 0.17763,-0.631579 1.36185,0.31579 1.00658,1.243421 0.17763,-2.072368 1.71711,-1.44079 0.65131,-1.539473 1.26316,-0.513158 0.73026,-1.026316 1.63816,-0.31579 0.80921,-1.243421 c -0.81751,-10e-7 -1.62986,0 -2.44737,0 l 1.53948,-0.710526 1.08552,0 1.53947,-0.513157 0.19737,-0.631579 -0.55263,-0.513159 -0.63157,-0.197368 0.17763,-0.611841 -0.45395,-0.927632 -1.08553,0.394737 0.17763,-0.809211 -1.26316,-0.730263 -1.00658,1.756579 0.0987,0.611842 -1.00658,0.414474 -0.63158,1.342105 -0.27632,-1.243422 -1.7171,-0.710526 -0.27632,-0.927631 2.26974,-1.342105 0.98684,-0.927632 0.0987,-1.125 -0.55263,-0.315789 -0.0987,-0.01974 z m 15.80921,1.263157 -0.71053,0.394738 -0.375,-0.09869 -0.0789,0.631579 0.63158,0.394737 1.08553,-0.710526 -0.55263,-0.611843 z m -11.98027,0.197369 -0.73026,0.513158 0.90789,0.611842 0.73026,0 0,-0.710526 -0.90789,-0.414474 z m 14.34869,2.368421 0,0.611842 0.37499,0.414474 0,0.927631 -0.19736,1.243421 1.00658,-0.217105 0.73026,-0.710526 -0.63158,-0.611842 c -0.21353,-0.569701 -0.46301,-1.111478 -0.73026,-1.657895 l -0.55263,0 z m -0.35526,1.243421 -0.65132,0.197369 0.19736,1.125 0.80922,-0.394738 -0.35526,-0.927631 z m -12.5329,1.855263 0.25657,1.440789 0.55264,-0.828947 -0.80921,-0.611842 z"
       inkscape:connector-curvature="0"
       id="path4144"
       style="fill:url(#radialGradient2720);fill-opacity:1;fill-rule:nonzero;stroke-miterlimit:4;display:inline" />
    <path
       d="M 24.03125,47.25 C 24.023355,47.503075 24,47.745009 24,48 24,61.254111 34.745166,72 48,72 61.254834,72 72,61.254111 72,48 72,47.745009 71.976645,47.503075 71.96875,47.25 71.325955,59.930185 60.840621,70 48,70 35.159379,70 24.674045,59.930185 24.03125,47.25 z"
       inkscape:connector-curvature="0"
       id="path2920"
       style="opacity:0.20000000000000001;fill:#5778a8;fill-opacity:1;fill-rule:evenodd;stroke:none;display:inline" />
    <path
       d="m 23.999996,47.5 c -0.0035,0.168972 0,0.330187 0,0.5 0,13.254111 10.745166,24 24,24 13.254834,0 24,-10.745889 24,-24 0,-0.169813 0.0035,-0.331028 0,-0.5 -0.263839,13.025353 -10.910748,23.5 -24,23.5 -13.089252,0 -23.736161,-10.474647 -24,-23.5 z"
       inkscape:connector-curvature="0"
       id="path3945"
       style="opacity:0.29999999999999999;fill:#5778a8;fill-opacity:1;fill-rule:evenodd;stroke:none;display:inline" />
  </g>
</svg>
