<?xml version="1.0" encoding="UTF-8" standalone="no"?>
<!-- Created with Inkscape (http://www.inkscape.org/) -->

<svg
   xmlns:dc="http://purl.org/dc/elements/1.1/"
   xmlns:cc="http://creativecommons.org/ns#"
   xmlns:rdf="http://www.w3.org/1999/02/22-rdf-syntax-ns#"
   xmlns:svg="http://www.w3.org/2000/svg"
   xmlns="http://www.w3.org/2000/svg"
   xmlns:xlink="http://www.w3.org/1999/xlink"
   xmlns:sodipodi="http://sodipodi.sourceforge.net/DTD/sodipodi-0.dtd"
   xmlns:inkscape="http://www.inkscape.org/namespaces/inkscape"
   width="64"
   height="64"
   id="svg2"
   version="1.1"
   inkscape:version="0.48.4 r9939"
   sodipodi:docname="Adm_icon_RaspberryPi.svg"
   inkscape:export-filename="C:\Documents and Settings\MARTINELLI.NEE\Documenti\Michele\ICON_32x32.png"
   inkscape:export-xdpi="90"
   inkscape:export-ydpi="90">
  <defs
     id="defs4">
    <linearGradient
       id="linearGradient4386">
      <stop
         id="stop4388"
         offset="0"
         style="stop-color:#888888;stop-opacity:1;" />
      <stop
         id="stop4390"
         offset="1"
         style="stop-color:#aaaaaa;stop-opacity:1;" />
    </linearGradient>
    <linearGradient
       id="linearGradient4378">
      <stop
         style="stop-color:#888888;stop-opacity:1;"
         offset="0"
         id="stop4380" />
      <stop
         style="stop-color:#888888;stop-opacity:0;"
         offset="1"
         id="stop4382" />
    </linearGradient>
    <filter
       inkscape:collect="always"
       id="filter3797"
       color-interpolation-filters="sRGB">
      <feGaussianBlur
         inkscape:collect="always"
         stdDeviation="0.42"
         id="feGaussianBlur3799" />
    </filter>
    <linearGradient
       inkscape:collect="always"
       xlink:href="#linearGradient4386"
       id="linearGradient4384"
       x1="6"
       y1="-26"
       x2="60"
       y2="26"
       gradientUnits="userSpaceOnUse" />
  </defs>
  <sodipodi:namedview
     id="base"
     pagecolor="#ffffff"
     bordercolor="#666666"
     borderopacity="1.0"
     inkscape:pageopacity="0.0"
     inkscape:pageshadow="2"
     inkscape:zoom="10.765625"
     inkscape:cx="31.442671"
     inkscape:cy="32"
     inkscape:document-units="px"
     inkscape:current-layer="layer2"
     showgrid="true"
     inkscape:window-width="1327"
     inkscape:window-height="884"
     inkscape:window-x="98"
     inkscape:window-y="166"
     inkscape:window-maximized="0">
    <inkscape:grid
       type="xygrid"
       id="grid2985"
       empspacing="8"
       visible="true"
       enabled="true"
       snapvisiblegridlinesonly="true"
       spacingy="2px"
       spacingx="2px" />
  </sodipodi:namedview>
  <metadata
     id="metadata7">
    <rdf:RDF>
      <cc:Work
         rdf:about="">
        <dc:format>image/svg+xml</dc:format>
        <dc:type
           rdf:resource="http://purl.org/dc/dcmitype/StillImage" />
        <dc:title></dc:title>
      </cc:Work>
    </rdf:RDF>
  </metadata>
  <g
     inkscape:label="Background"
     inkscape:groupmode="layer"
     id="layer1"
     transform="translate(0,-988.3622)"
     style="display:inline" />
  <g
     inkscape:groupmode="layer"
     id="layer4"
     inkscape:label="Shadow"
     style="display:inline"
     transform="translate(0,32)">
    <path
       style="fill:#333333;fill-opacity:1;stroke:#333333;stroke-width:2;stroke-linejoin:round;stroke-miterlimit:4;stroke-opacity:1;stroke-dasharray:none;display:inline;filter:url(#filter3797)"
       d="m 1.9622642,6.0490566 4,-4 24.1378768,-0.026269 -0.137877,24.0262695 -4,4 -23.9999998,0 z"
       id="path2991-1"
       inkscape:connector-curvature="0"
       transform="matrix(1.9917058,0,0,1.9997518,0.04937537,-32.045073)"
       sodipodi:nodetypes="ccccccc" />
  </g>
  <g
     inkscape:groupmode="layer"
     id="layer2"
     inkscape:label="Button"
     style="display:inline"
     transform="translate(0,32)">
    <path
       style="fill:url(#linearGradient4384);fill-opacity:1.0;stroke:none;display:inline"
       d="m 2,-20 10,-10 50,0 0,50 -10,10 -50,0 z"
       id="path2991"
       inkscape:connector-curvature="0"
       inkscape:export-filename="C:\Documents and Settings\MARTINELLI.NEE\Documenti\Michele\WM_SquareMENU\icon_01.png"
       inkscape:export-xdpi="90"
       inkscape:export-ydpi="90"
       sodipodi:nodetypes="ccccccc" />
    <path
       d="m 22.690237,-25.548665 c -0.26059,0.0081 -0.541238,0.10435 -0.859536,0.3555 -0.77976,-0.300693 -1.53576,-0.405151 -2.21184,0.207008 -1.044,-0.135418 -1.383264,0.144014 -1.640304,0.470246 -0.229176,-0.0048 -1.714968,-0.235584 -2.396304,0.780768 -1.712232,-0.202608 -2.253384,1.007136 -1.640232,2.135232 -0.349697,0.541368 -0.712044,1.076184 0.105754,2.108232 -0.289296,0.574812 -0.109973,1.198368 0.5715,1.953 -0.179849,0.808056 0.173671,1.378152 0.807768,1.822464 -0.118592,1.105776 1.014048,1.748664 1.352232,1.977768 0.129866,0.644306 0.400528,1.252296 1.694232,1.588464 0.21335,0.960192 0.990864,1.126008 1.743768,1.327536 -2.488464,1.44648 -4.622472,3.349656 -4.608,8.01936 l -0.3645,0.6502464 c -2.85336,1.7352 -5.4205204,7.31232 -1.40616,11.84544 0.262216,1.4189756 0.701971,2.4382076 1.093536,3.5662316 0.585633,4.545432 4.407696,6.673824 5.415768,6.925536 1.477224,1.125216 3.050496,2.192904 5.179536,2.940768 2.007,2.069928 4.181328,2.858832 6.367536,2.857536 0.03205,-2e-5 0.06469,3.6e-4 0.09675,0 2.186208,0.0014 4.360464,-0.787536 6.367536,-2.857536 2.128968,-0.747864 3.702312,-1.815552 5.179536,-2.940768 1.008072,-0.251704 4.83012,-2.380104 5.415768,-6.925536 0.391529,-1.128024 0.831312,-2.147256 1.093536,-3.5662316 4.014288,-4.53348 1.4472,-10.11096 -1.406232,-11.84616 l -0.36504,-0.65016 c 0.01445,-4.669344 -2.119536,-6.57252 -4.608,-8.0193604 0.752904,-0.201484 1.530432,-0.3673 1.743768,-1.327536 1.293696,-0.336225 1.564416,-0.944208 1.694232,-1.588464 0.338242,-0.229053 1.470816,-0.871992 1.352232,-1.977768 0.634083,-0.444355 0.987624,-1.01448 0.807768,-1.822464 0.681473,-0.754632 0.860832,-1.378152 0.5715,-1.953 0.81792,-1.031616 0.45504,-1.566432 0.10584,-2.1078 0.61272,-1.128096 0.072,-2.33784 -1.64088,-2.135232 -0.68112,-1.016352 -2.16648,-0.78552 -2.39616,-0.780768 -0.25704,-0.326232 -0.59616,-0.605664 -1.64016,-0.470246 -0.67608,-0.612158 -1.43208,-0.507701 -2.21184,-0.207 -0.92592,-0.730656 -1.53864,-0.144958 -2.23848,0.07649 -1.12104,-0.366315 -1.37736,0.135432 -1.92816,0.339753 -1.22256,-0.258343 -1.59408,0.304128 -2.18016,0.897768 l -0.681753,-0.0135 c -1.843992,1.086696 -2.760048,3.299472 -3.084768,4.437 -0.324872,-1.137744 -1.238832,-3.35052 -3.082464,-4.437 l -0.681754,0.0135 c -0.5868,-0.59364 -0.95832,-1.156104 -2.18088,-0.897768 -0.5508,-0.204321 -0.8064,-0.706068 -1.92816,-0.339753 -0.459338,-0.145332 -0.881784,-0.447437 -1.379232,-0.432 z"
       id="path4"
       inkscape:connector-curvature="0"
       style="fill:#333333;fill-opacity:1" />
    <g
       id="g3929"
       style="fill:#888888;fill-opacity:1">
      <path
         inkscape:connector-curvature="0"
         style="fill:#888888;fill-opacity:1"
         id="path6"
         d="m 19.018957,-20.767879 c 4.892256,2.522232 7.7364,4.562568 9.29448,6.300288 -0.797904,3.198096 -4.960512,3.34404 -6.482592,3.254328 0.311645,-0.145058 0.571673,-0.318802 0.663876,-0.58577 -0.381924,-0.271426 -1.736136,-0.0286 -2.681568,-0.559743 0.363175,-0.07524 0.533052,-0.148536 0.702929,-0.416549 -0.893232,-0.284882 -1.855368,-0.53038 -2.421216,-1.002312 0.305373,0.0038 0.590486,0.06831 0.98928,-0.208274 -0.800064,-0.43115 -1.653768,-0.772848 -2.317032,-1.431864 0.413654,-0.01012 0.859608,-0.0041 0.98928,-0.156204 -0.73224,-0.45365 -1.350072,-0.958176 -1.861488,-1.509984 0.57888,0.06988 0.82332,0.0097 0.963288,-0.09112 -0.553522,-0.566943 -1.254096,-1.045656 -1.588104,-1.744272 0.429811,0.14814 0.823032,0.204847 1.106496,-0.01302 -0.188093,-0.424332 -0.99396,-0.674611 -1.457928,-1.666224 0.452477,0.04388 0.9324,0.09872 1.028376,0 -0.210024,-0.855648 -0.570384,-1.33668 -0.923832,-1.835064 0.9684,-0.0144 2.435616,0.0037 2.36916,-0.07812 l -0.598788,-0.611805 c 0.945936,-0.254679 1.913832,0.04091 2.61648,0.260344 0.315497,-0.248954 -0.0056,-0.56376 -0.390514,-0.885168 0.80388,0.107324 1.530288,0.292133 2.186856,0.546725 0.350813,-0.316749 -0.227801,-0.633506 -0.507672,-0.950256 1.241928,0.235627 1.768104,0.566691 2.29104,0.8982 0.379397,-0.363657 0.02172,-0.672717 -0.234309,-0.98928 0.936432,0.346824 1.41876,0.794592 1.926576,1.2366 0.172166,-0.232351 0.437392,-0.402653 0.117158,-0.963288 0.664862,0.383235 1.165608,0.83484 1.536048,1.340784 0.411365,-0.261929 0.245081,-0.620136 0.247327,-0.950256 0.690955,0.562068 1.129464,1.160208 1.666224,1.744272 0.108123,-0.07873 0.202795,-0.345722 0.28638,-0.768024 1.64844,1.599264 3.977712,5.627376 0.598788,7.22448 -2.87568,-2.37168 -6.31008,-4.095576 -10.116,-5.388768 z" />
      <path
         inkscape:connector-curvature="0"
         style="fill:#888888;fill-opacity:1"
         id="path8"
         d="m 44.977117,-20.767879 c -4.89168,2.522448 -7.73568,4.562208 -9.29376,6.300288 0.797904,3.198096 4.960512,3.34404 6.482592,3.254328 -0.311645,-0.145058 -0.571673,-0.318802 -0.663876,-0.58577 0.381924,-0.271426 1.736136,-0.0286 2.681568,-0.559743 -0.363175,-0.07524 -0.533052,-0.148536 -0.702929,-0.416549 0.893232,-0.284882 1.855368,-0.53038 2.421216,-1.002312 -0.305373,0.0038 -0.590486,0.06831 -0.98928,-0.208274 0.800064,-0.43115 1.653768,-0.772848 2.317032,-1.431864 -0.413654,-0.01012 -0.859608,-0.0041 -0.98928,-0.156204 0.73224,-0.45365 1.350072,-0.958176 1.861488,-1.509984 -0.57888,0.06988 -0.82332,0.0097 -0.963288,-0.09112 0.553522,-0.566943 1.254096,-1.045656 1.588104,-1.744272 -0.429811,0.14814 -0.823032,0.204847 -1.106496,-0.01302 0.188093,-0.424332 0.99396,-0.674611 1.457928,-1.666224 -0.452477,0.04388 -0.9324,0.09872 -1.028376,0 0.210406,-0.856008 0.57078,-1.33704 0.924192,-1.835424 -0.9684,-0.01438 -2.435616,0.0038 -2.36916,-0.07811 l 0.598788,-0.611806 c -0.945936,-0.254678 -1.913832,0.04091 -2.61648,0.260345 -0.315497,-0.248955 0.0056,-0.56376 0.390514,-0.885168 -0.80388,0.107323 -1.530288,0.292133 -2.186856,0.546725 -0.350813,-0.31675 0.227801,-0.633507 0.507672,-0.950256 -1.241928,0.235627 -1.768104,0.56669 -2.29104,0.8982 -0.379397,-0.363658 -0.02172,-0.672718 0.234309,-0.98928 -0.936432,0.346824 -1.41876,0.794592 -1.926576,1.2366 -0.172166,-0.232352 -0.437392,-0.402653 -0.117158,-0.963288 -0.664862,0.383234 -1.165608,0.83484 -1.536048,1.340784 -0.411365,-0.261929 -0.245081,-0.620136 -0.247327,-0.950256 -0.690955,0.562068 -1.129464,1.160208 -1.666224,1.744272 -0.108123,-0.07873 -0.202795,-0.345723 -0.28638,-0.768024 -1.64844,1.599264 -3.977712,5.627376 -0.598788,7.22448 2.874168,-2.372184 6.308352,-4.095936 10.11456,-5.389128 z" />
    </g>
    <g
       id="g3781"
       style="fill:#888888;fill-opacity:1"
       transform="matrix(0.072,0,0,0.072,11.286877,-25.667911)">
      <path
         transform="matrix(1.131107,0,0,1.1280497,-43.139135,-68.310983)"
         id="path10"
         d="m 365.2,521.85 a 71.956,66.532 0 1 1 -143.91,0 71.956,66.532 0 1 1 143.91,0 z"
         style="fill:#888888;fill-opacity:1"
         inkscape:connector-curvature="0" />
      <path
         transform="matrix(0.76741684,-1.1613112,2.171115,1.4224368,-560.88858,217.68859)"
         id="path12"
         d="m 262.84,276.65 a 61.875,28.125 0 1 1 -123.75,0 61.875,28.125 0 1 1 123.75,0 z"
         style="fill:#888888;fill-opacity:1"
         inkscape:connector-curvature="0" />
      <path
         transform="matrix(-0.76741684,-1.1613112,-2.171115,1.4224368,1134.8288,213.68859)"
         id="path14"
         d="m 262.84,276.65 a 61.875,28.125 0 1 1 -123.75,0 61.875,28.125 0 1 1 123.75,0 z"
         style="fill:#888888;fill-opacity:1"
         inkscape:connector-curvature="0" />
      <path
         id="path16"
         d="M 72.91,342.09 C 109.32,332.33 85.202,492.72 55.577,479.56 22.99,453.35 12.494,376.59 72.91,342.09 z"
         style="fill:#888888;fill-opacity:1"
         inkscape:connector-curvature="0" />
      <path
         id="path18"
         d="M 493.68,340.09 C 457.266,330.3331 481.388,490.73 511.013,477.57 543.6,451.357 554.096,374.59 493.68,340.09 z"
         style="fill:#888888;fill-opacity:1"
         inkscape:connector-curvature="0" />
      <path
         id="path20"
         d="m 369.97,220.65 c 62.835,-10.61 115.12,26.722 113.01,94.858 -2.0669,26.121 -136.16,-90.969 -113.01,-94.858 z"
         style="fill:#888888;fill-opacity:1"
         inkscape:connector-curvature="0" />
      <path
         id="path22"
         d="M 196.36,218.65 C 133.52,208.04 81.24,245.38 83.35,313.51 85.417,339.63 219.51,222.54 196.36,218.65 z"
         style="fill:#888888;fill-opacity:1"
         inkscape:connector-curvature="0" />
      <path
         id="path24"
         d="m 286.62,202.76 c -37.503,-0.97548 -73.495,27.834 -73.582,44.544 -0.10462,20.304 29.651,41.093 73.837,41.62 45.123,0.32321 73.916,-16.64 74.061,-37.594 0.16484,-23.74 -41.039,-48.937 -74.317,-48.571 z"
         style="fill:#888888;fill-opacity:1"
         inkscape:connector-curvature="0" />
      <path
         id="path26"
         d="m 288.91,619.12 c 32.697,-1.4271 76.571,10.532 76.657,26.396 0.5427,15.405 -39.79,50.211 -78.826,49.538 -40.427,1.7439 -80.069,-33.116 -79.55,-45.199 -0.60506,-17.716 49.226,-31.548 81.719,-30.735 z"
         style="fill:#888888;fill-opacity:1"
         inkscape:connector-curvature="0" />
      <path
         id="path28"
         d="m 168.14,525.1 c 23.279,28.046 33.891,77.319 14.464,91.844 -18.379,11.088 -63.012,6.5216 -94.736,-39.052 -21.395,-38.242 -18.638,-77.157 -3.6159,-88.589 22.464,-13.684 57.173,4.799 83.889,35.797 z"
         style="fill:#888888;fill-opacity:1"
         inkscape:connector-curvature="0" />
      <path
         id="path30"
         d="m 405.02,516.21 c -25.187,29.502 -39.212,83.31 -20.838,100.64 17.568,13.464 64.729,11.582 99.566,-36.756 25.296,-32.465 16.82,-86.682 2.3708,-101.08 -21.464,-16.602 -52.277,4.6449 -81.099,37.188 z"
         style="fill:#888888;fill-opacity:1"
         inkscape:connector-curvature="0" />
    </g>
  </g>
  <g
     inkscape:groupmode="layer"
     id="layer3"
     inkscape:label="Text"
     transform="translate(0,32)" />
</svg>
